<svg width="574" height="186" viewBox="0 0 574 186" fill="none" xmlns="http://www.w3.org/2000/svg">
<rect width="82" height="40" fill="#241C5C" fill-opacity="0.5"/>
<rect width="82" height="40" transform="translate(82)" fill="#241C5C" fill-opacity="0.5"/>
<rect width="82" height="40" transform="translate(164)" fill="#241C5C" fill-opacity="0.5"/>
<rect width="82" height="40" transform="translate(246)" fill="#241C5C" fill-opacity="0.5"/>
<rect width="82" height="40" transform="translate(328)" fill="#241C5C" fill-opacity="0.5"/>
<rect width="82" height="40" transform="translate(410)" fill="#241C5C" fill-opacity="0.5"/>
<rect width="82" height="40" transform="translate(492)" fill="#241C5C" fill-opacity="0.5"/>
<path d="M504.324 26V14.8H508.884C510.079 14.8 511.124 15.04 512.02 15.52C512.927 15.9893 513.631 16.6453 514.132 17.488C514.633 18.3307 514.884 19.3013 514.884 20.4C514.884 21.4987 514.633 22.4693 514.132 23.312C513.631 24.1547 512.927 24.816 512.02 25.296C511.124 25.7653 510.079 26 508.884 26H504.324ZM505.508 24.976H508.82C509.812 24.976 510.671 24.784 511.396 24.4C512.132 24.0053 512.703 23.4667 513.108 22.784C513.513 22.0907 513.716 21.296 513.716 20.4C513.716 19.4933 513.513 18.6987 513.108 18.016C512.703 17.3333 512.132 16.8 511.396 16.416C510.671 16.0213 509.812 15.824 508.82 15.824H505.508V24.976ZM521.671 26.08C520.796 26.08 520.028 25.8987 519.367 25.536C518.705 25.1627 518.188 24.656 517.815 24.016C517.441 23.3653 517.255 22.624 517.255 21.792C517.255 20.96 517.431 20.224 517.783 19.584C518.145 18.944 518.636 18.4427 519.255 18.08C519.884 17.7067 520.588 17.52 521.367 17.52C522.156 17.52 522.855 17.7013 523.463 18.064C524.081 18.416 524.567 18.9173 524.919 19.568C525.271 20.208 525.447 20.9493 525.447 21.792C525.447 21.8453 525.441 21.904 525.431 21.968C525.431 22.0213 525.431 22.08 525.431 22.144H518.119V21.296H524.823L524.375 21.632C524.375 21.024 524.241 20.4853 523.975 20.016C523.719 19.536 523.367 19.1627 522.919 18.896C522.471 18.6293 521.953 18.496 521.367 18.496C520.791 18.496 520.273 18.6293 519.815 18.896C519.356 19.1627 518.999 19.536 518.743 20.016C518.487 20.496 518.359 21.0453 518.359 21.664V21.84C518.359 22.48 518.497 23.0453 518.775 23.536C519.063 24.016 519.457 24.3947 519.959 24.672C520.471 24.9387 521.052 25.072 521.703 25.072C522.215 25.072 522.689 24.9813 523.127 24.8C523.575 24.6187 523.959 24.3413 524.279 23.968L524.919 24.704C524.545 25.152 524.076 25.4933 523.511 25.728C522.956 25.9627 522.343 26.08 521.671 26.08ZM531.215 26.08C530.426 26.08 529.818 25.8667 529.391 25.44C528.964 25.0133 528.751 24.4107 528.751 23.632V15.744H529.887V23.568C529.887 24.0587 530.01 24.4373 530.255 24.704C530.511 24.9707 530.874 25.104 531.343 25.104C531.844 25.104 532.26 24.96 532.591 24.672L532.991 25.488C532.767 25.6907 532.495 25.84 532.175 25.936C531.866 26.032 531.546 26.08 531.215 26.08ZM527.247 18.544V17.6H532.447V18.544H527.247ZM541.123 26V24.144L541.075 23.84V20.736C541.075 20.0213 540.872 19.472 540.467 19.088C540.072 18.704 539.48 18.512 538.691 18.512C538.147 18.512 537.63 18.6027 537.139 18.784C536.648 18.9653 536.232 19.2053 535.891 19.504L535.379 18.656C535.806 18.2933 536.318 18.016 536.915 17.824C537.512 17.6213 538.142 17.52 538.803 17.52C539.891 17.52 540.728 17.792 541.315 18.336C541.912 18.8693 542.211 19.6853 542.211 20.784V26H541.123ZM538.227 26.08C537.598 26.08 537.048 25.9787 536.579 25.776C536.12 25.5627 535.768 25.2747 535.523 24.912C535.278 24.5387 535.155 24.112 535.155 23.632C535.155 23.1947 535.256 22.8 535.459 22.448C535.672 22.0853 536.014 21.7973 536.483 21.584C536.963 21.36 537.603 21.248 538.403 21.248H541.299V22.096H538.435C537.624 22.096 537.059 22.24 536.739 22.528C536.43 22.816 536.275 23.1733 536.275 23.6C536.275 24.08 536.462 24.464 536.835 24.752C537.208 25.04 537.731 25.184 538.403 25.184C539.043 25.184 539.592 25.04 540.051 24.752C540.52 24.4533 540.862 24.0267 541.075 23.472L541.331 24.256C541.118 24.8107 540.744 25.2533 540.211 25.584C539.688 25.9147 539.027 26.08 538.227 26.08ZM546.097 26V17.6H547.233V26H546.097ZM546.673 15.744C546.438 15.744 546.241 15.664 546.081 15.504C545.921 15.344 545.841 15.152 545.841 14.928C545.841 14.704 545.921 14.5173 546.081 14.368C546.241 14.208 546.438 14.128 546.673 14.128C546.907 14.128 547.105 14.2027 547.265 14.352C547.425 14.5013 547.505 14.688 547.505 14.912C547.505 15.1467 547.425 15.344 547.265 15.504C547.115 15.664 546.918 15.744 546.673 15.744ZM551.193 26V14.128H552.329V26H551.193ZM558.546 26.08C557.853 26.08 557.197 25.984 556.578 25.792C555.96 25.5893 555.474 25.3387 555.122 25.04L555.634 24.144C555.976 24.4 556.413 24.624 556.946 24.816C557.48 24.9973 558.04 25.088 558.626 25.088C559.426 25.088 560.002 24.9653 560.354 24.72C560.706 24.464 560.882 24.128 560.882 23.712C560.882 23.4027 560.781 23.1627 560.578 22.992C560.386 22.8107 560.13 22.6773 559.81 22.592C559.49 22.496 559.133 22.416 558.738 22.352C558.344 22.288 557.949 22.2133 557.554 22.128C557.17 22.0427 556.818 21.92 556.498 21.76C556.178 21.5893 555.917 21.36 555.714 21.072C555.522 20.784 555.426 20.4 555.426 19.92C555.426 19.4613 555.554 19.0507 555.81 18.688C556.066 18.3253 556.44 18.0427 556.93 17.84C557.432 17.6267 558.04 17.52 558.754 17.52C559.298 17.52 559.842 17.5947 560.386 17.744C560.93 17.8827 561.378 18.0693 561.73 18.304L561.234 19.216C560.861 18.96 560.461 18.7787 560.034 18.672C559.608 18.5547 559.181 18.496 558.754 18.496C557.997 18.496 557.437 18.6293 557.074 18.896C556.722 19.152 556.546 19.4827 556.546 19.888C556.546 20.208 556.642 20.4587 556.834 20.64C557.037 20.8213 557.298 20.9653 557.618 21.072C557.949 21.168 558.306 21.248 558.69 21.312C559.085 21.376 559.474 21.456 559.858 21.552C560.253 21.6373 560.61 21.76 560.93 21.92C561.261 22.0693 561.522 22.288 561.714 22.576C561.917 22.8533 562.018 23.2213 562.018 23.68C562.018 24.1707 561.88 24.5973 561.602 24.96C561.336 25.312 560.941 25.5893 560.418 25.792C559.906 25.984 559.282 26.08 558.546 26.08Z" fill="black"/>
<rect width="82" height="40" transform="translate(0 40)" fill="#ED6B1E" fill-opacity="0.5"/>
<path d="M3.324 66V54.8H4.3L12.028 64.528H11.516V54.8H12.684V66H11.708L3.996 56.272H4.508V66H3.324ZM20.3236 66.08C19.513 66.08 18.7823 65.8987 18.1316 65.536C17.4916 65.1627 16.985 64.656 16.6116 64.016C16.2383 63.3653 16.0516 62.624 16.0516 61.792C16.0516 60.9493 16.2383 60.208 16.6116 59.568C16.985 58.928 17.4916 58.4267 18.1316 58.064C18.7716 57.7013 19.5023 57.52 20.3236 57.52C21.1556 57.52 21.8916 57.7013 22.5316 58.064C23.1823 58.4267 23.689 58.928 24.0516 59.568C24.425 60.208 24.6116 60.9493 24.6116 61.792C24.6116 62.624 24.425 63.3653 24.0516 64.016C23.689 64.656 23.1823 65.1627 22.5316 65.536C21.881 65.8987 21.145 66.08 20.3236 66.08ZM20.3236 65.072C20.9316 65.072 21.4703 64.9387 21.9396 64.672C22.409 64.3947 22.777 64.0107 23.0436 63.52C23.321 63.0187 23.4596 62.4427 23.4596 61.792C23.4596 61.1307 23.321 60.5547 23.0436 60.064C22.777 59.5733 22.409 59.1947 21.9396 58.928C21.4703 58.6507 20.937 58.512 20.3396 58.512C19.7423 58.512 19.209 58.6507 18.7396 58.928C18.2703 59.1947 17.897 59.5733 17.6196 60.064C17.3423 60.5547 17.2036 61.1307 17.2036 61.792C17.2036 62.4427 17.3423 63.0187 17.6196 63.52C17.897 64.0107 18.2703 64.3947 18.7396 64.672C19.209 64.9387 19.737 65.072 20.3236 65.072ZM27.6085 66.08C27.3738 66.08 27.1712 65.9947 27.0005 65.824C26.8405 65.6533 26.7605 65.4453 26.7605 65.2C26.7605 64.944 26.8405 64.736 27.0005 64.576C27.1712 64.416 27.3738 64.336 27.6085 64.336C27.8432 64.336 28.0405 64.416 28.2005 64.576C28.3712 64.736 28.4565 64.944 28.4565 65.2C28.4565 65.4453 28.3712 65.6533 28.2005 65.824C28.0405 65.9947 27.8432 66.08 27.6085 66.08ZM36.5106 66.096C35.668 66.096 34.884 65.9573 34.1586 65.68C33.444 65.392 32.82 64.992 32.2866 64.48C31.764 63.9573 31.3533 63.3547 31.0546 62.672C30.7666 61.9787 30.6226 61.2213 30.6226 60.4C30.6226 59.5787 30.7666 58.8267 31.0546 58.144C31.3533 57.4507 31.764 56.848 32.2866 56.336C32.82 55.8133 33.444 55.4133 34.1586 55.136C34.8733 54.848 35.6573 54.704 36.5106 54.704C37.3533 54.704 38.132 54.848 38.8466 55.136C39.5613 55.4133 40.18 55.808 40.7026 56.32C41.236 56.832 41.6466 57.4347 41.9346 58.128C42.2333 58.8213 42.3826 59.5787 42.3826 60.4C42.3826 61.2213 42.2333 61.9787 41.9346 62.672C41.6466 63.3653 41.236 63.968 40.7026 64.48C40.18 64.992 39.5613 65.392 38.8466 65.68C38.132 65.9573 37.3533 66.096 36.5106 66.096ZM36.5106 65.04C37.1826 65.04 37.8013 64.928 38.3666 64.704C38.9426 64.4693 39.4386 64.144 39.8546 63.728C40.2813 63.3013 40.612 62.8107 40.8466 62.256C41.0813 61.6907 41.1986 61.072 41.1986 60.4C41.1986 59.728 41.0813 59.1147 40.8466 58.56C40.612 57.9947 40.2813 57.504 39.8546 57.088C39.4386 56.6613 38.9426 56.336 38.3666 56.112C37.8013 55.8773 37.1826 55.76 36.5106 55.76C35.8386 55.76 35.2146 55.8773 34.6386 56.112C34.0626 56.336 33.5613 56.6613 33.1346 57.088C32.7186 57.504 32.388 57.9947 32.1426 58.56C31.908 59.1147 31.7906 59.728 31.7906 60.4C31.7906 61.0613 31.908 61.6747 32.1426 62.24C32.388 62.8053 32.7186 63.3013 33.1346 63.728C33.5613 64.144 34.0626 64.4693 34.6386 64.704C35.2146 64.928 35.8386 65.04 36.5106 65.04ZM45.5965 66V57.6H46.6845V59.888L46.5725 59.488C46.8072 58.848 47.2018 58.3627 47.7565 58.032C48.3112 57.6907 48.9992 57.52 49.8205 57.52V58.624C49.7778 58.624 49.7352 58.624 49.6925 58.624C49.6498 58.6133 49.6072 58.608 49.5645 58.608C48.6792 58.608 47.9858 58.88 47.4845 59.424C46.9832 59.9573 46.7325 60.72 46.7325 61.712V66H45.5965ZM55.9593 66.08C55.1593 66.08 54.4393 65.8987 53.7993 65.536C53.1699 65.1733 52.6739 64.672 52.3113 64.032C51.9486 63.3813 51.7673 62.6347 51.7673 61.792C51.7673 60.9387 51.9486 60.192 52.3113 59.552C52.6739 58.912 53.1699 58.416 53.7993 58.064C54.4393 57.7013 55.1593 57.52 55.9593 57.52C56.6953 57.52 57.3513 57.6853 57.9273 58.016C58.5139 58.3467 58.9779 58.832 59.3193 59.472C59.6713 60.1013 59.8472 60.8747 59.8472 61.792C59.8472 62.6987 59.6766 63.472 59.3353 64.112C58.9939 64.752 58.5299 65.2427 57.9433 65.584C57.3673 65.9147 56.7059 66.08 55.9593 66.08ZM56.0393 65.072C56.6366 65.072 57.1699 64.9387 57.6393 64.672C58.1193 64.3947 58.4926 64.0107 58.7593 63.52C59.0366 63.0187 59.1753 62.4427 59.1753 61.792C59.1753 61.1307 59.0366 60.5547 58.7593 60.064C58.4926 59.5733 58.1193 59.1947 57.6393 58.928C57.1699 58.6507 56.6366 58.512 56.0393 58.512C55.4526 58.512 54.9246 58.6507 54.4553 58.928C53.9859 59.1947 53.6126 59.5733 53.3353 60.064C53.0579 60.5547 52.9193 61.1307 52.9193 61.792C52.9193 62.4427 53.0579 63.0187 53.3353 63.52C53.6126 64.0107 53.9859 64.3947 54.4553 64.672C54.9246 64.9387 55.4526 65.072 56.0393 65.072ZM59.2073 66V63.472L59.3193 61.776L59.1593 60.08V54.128H60.2953V66H59.2073ZM67.827 66.08C66.9523 66.08 66.1843 65.8987 65.523 65.536C64.8617 65.1627 64.3443 64.656 63.971 64.016C63.5977 63.3653 63.411 62.624 63.411 61.792C63.411 60.96 63.587 60.224 63.939 59.584C64.3017 58.944 64.7923 58.4427 65.411 58.08C66.0403 57.7067 66.7443 57.52 67.523 57.52C68.3123 57.52 69.011 57.7013 69.619 58.064C70.2377 58.416 70.723 58.9173 71.075 59.568C71.427 60.208 71.603 60.9493 71.603 61.792C71.603 61.8453 71.5977 61.904 71.587 61.968C71.587 62.0213 71.587 62.08 71.587 62.144H64.275V61.296H70.979L70.531 61.632C70.531 61.024 70.3977 60.4853 70.131 60.016C69.875 59.536 69.523 59.1627 69.075 58.896C68.627 58.6293 68.1097 58.496 67.523 58.496C66.947 58.496 66.4297 58.6293 65.971 58.896C65.5123 59.1627 65.155 59.536 64.899 60.016C64.643 60.496 64.515 61.0453 64.515 61.664V61.84C64.515 62.48 64.6537 63.0453 64.931 63.536C65.219 64.016 65.6137 64.3947 66.115 64.672C66.627 64.9387 67.2083 65.072 67.859 65.072C68.371 65.072 68.8457 64.9813 69.283 64.8C69.731 64.6187 70.115 64.3413 70.435 63.968L71.075 64.704C70.7017 65.152 70.2323 65.4933 69.667 65.728C69.1123 65.9627 68.499 66.08 67.827 66.08ZM74.7152 66V57.6H75.8032V59.888L75.6912 59.488C75.9259 58.848 76.3206 58.3627 76.8752 58.032C77.4299 57.6907 78.1179 57.52 78.9392 57.52V58.624C78.8966 58.624 78.8539 58.624 78.8112 58.624C78.7686 58.6133 78.7259 58.608 78.6832 58.608C77.7979 58.608 77.1046 58.88 76.6032 59.424C76.1019 59.9573 75.8512 60.72 75.8512 61.712V66H74.7152Z" fill="black"/>
<rect width="82" height="40" transform="translate(82 40)" fill="#ED6B1E" fill-opacity="0.5"/>
<path d="M103.912 66.096C103.08 66.096 102.28 65.9627 101.512 65.696C100.755 65.4187 100.168 65.0667 99.752 64.64L100.216 63.728C100.611 64.112 101.139 64.4373 101.8 64.704C102.472 64.96 103.176 65.088 103.912 65.088C104.616 65.088 105.187 65.0027 105.624 64.832C106.072 64.6507 106.397 64.4107 106.6 64.112C106.813 63.8133 106.92 63.4827 106.92 63.12C106.92 62.6827 106.792 62.3307 106.536 62.064C106.291 61.7973 105.965 61.5893 105.56 61.44C105.155 61.28 104.707 61.1413 104.216 61.024C103.725 60.9067 103.235 60.784 102.744 60.656C102.253 60.5173 101.8 60.336 101.384 60.112C100.979 59.888 100.648 59.5947 100.392 59.232C100.147 58.8587 100.024 58.3733 100.024 57.776C100.024 57.2213 100.168 56.7147 100.456 56.256C100.755 55.7867 101.208 55.4133 101.816 55.136C102.424 54.848 103.203 54.704 104.152 54.704C104.781 54.704 105.405 54.7947 106.024 54.976C106.643 55.1467 107.176 55.3867 107.624 55.696L107.224 56.64C106.744 56.32 106.232 56.0853 105.688 55.936C105.155 55.7867 104.637 55.712 104.136 55.712C103.464 55.712 102.909 55.8027 102.472 55.984C102.035 56.1653 101.709 56.4107 101.496 56.72C101.293 57.0187 101.192 57.36 101.192 57.744C101.192 58.1813 101.315 58.5333 101.56 58.8C101.816 59.0667 102.147 59.2747 102.552 59.424C102.968 59.5733 103.421 59.7067 103.912 59.824C104.403 59.9413 104.888 60.0693 105.368 60.208C105.859 60.3467 106.307 60.528 106.712 60.752C107.128 60.9653 107.459 61.2533 107.704 61.616C107.96 61.9787 108.088 62.4533 108.088 63.04C108.088 63.584 107.939 64.0907 107.64 64.56C107.341 65.0187 106.883 65.392 106.264 65.68C105.656 65.9573 104.872 66.096 103.912 66.096ZM114.796 66.08C113.921 66.08 113.153 65.8987 112.492 65.536C111.83 65.1627 111.313 64.656 110.94 64.016C110.566 63.3653 110.38 62.624 110.38 61.792C110.38 60.96 110.556 60.224 110.908 59.584C111.27 58.944 111.761 58.4427 112.38 58.08C113.009 57.7067 113.713 57.52 114.492 57.52C115.281 57.52 115.98 57.7013 116.588 58.064C117.206 58.416 117.692 58.9173 118.044 59.568C118.396 60.208 118.572 60.9493 118.572 61.792C118.572 61.8453 118.566 61.904 118.556 61.968C118.556 62.0213 118.556 62.08 118.556 62.144H111.244V61.296H117.948L117.5 61.632C117.5 61.024 117.366 60.4853 117.1 60.016C116.844 59.536 116.492 59.1627 116.044 58.896C115.596 58.6293 115.078 58.496 114.492 58.496C113.916 58.496 113.398 58.6293 112.94 58.896C112.481 59.1627 112.124 59.536 111.868 60.016C111.612 60.496 111.484 61.0453 111.484 61.664V61.84C111.484 62.48 111.622 63.0453 111.9 63.536C112.188 64.016 112.582 64.3947 113.084 64.672C113.596 64.9387 114.177 65.072 114.828 65.072C115.34 65.072 115.814 64.9813 116.252 64.8C116.7 64.6187 117.084 64.3413 117.404 63.968L118.044 64.704C117.67 65.152 117.201 65.4933 116.636 65.728C116.081 65.9627 115.468 66.08 114.796 66.08ZM121.684 66V57.6H122.772V59.888L122.66 59.488C122.895 58.848 123.289 58.3627 123.844 58.032C124.399 57.6907 125.087 57.52 125.908 57.52V58.624C125.865 58.624 125.823 58.624 125.78 58.624C125.737 58.6133 125.695 58.608 125.652 58.608C124.767 58.608 124.073 58.88 123.572 59.424C123.071 59.9573 122.82 60.72 122.82 61.712V66H121.684ZM128.781 66V57.6H129.917V66H128.781ZM129.357 55.744C129.122 55.744 128.925 55.664 128.765 55.504C128.605 55.344 128.525 55.152 128.525 54.928C128.525 54.704 128.605 54.5173 128.765 54.368C128.925 54.208 129.122 54.128 129.357 54.128C129.592 54.128 129.789 54.2027 129.949 54.352C130.109 54.5013 130.189 54.688 130.189 54.912C130.189 55.1467 130.109 55.344 129.949 55.504C129.8 55.664 129.602 55.744 129.357 55.744ZM139.142 66V64.144L139.094 63.84V60.736C139.094 60.0213 138.891 59.472 138.486 59.088C138.091 58.704 137.499 58.512 136.71 58.512C136.166 58.512 135.648 58.6027 135.158 58.784C134.667 58.9653 134.251 59.2053 133.91 59.504L133.398 58.656C133.824 58.2933 134.336 58.016 134.934 57.824C135.531 57.6213 136.16 57.52 136.822 57.52C137.91 57.52 138.747 57.792 139.334 58.336C139.931 58.8693 140.23 59.6853 140.23 60.784V66H139.142ZM136.246 66.08C135.616 66.08 135.067 65.9787 134.598 65.776C134.139 65.5627 133.787 65.2747 133.542 64.912C133.296 64.5387 133.174 64.112 133.174 63.632C133.174 63.1947 133.275 62.8 133.478 62.448C133.691 62.0853 134.032 61.7973 134.502 61.584C134.982 61.36 135.622 61.248 136.422 61.248H139.318V62.096H136.454C135.643 62.096 135.078 62.24 134.758 62.528C134.448 62.816 134.294 63.1733 134.294 63.6C134.294 64.08 134.48 64.464 134.854 64.752C135.227 65.04 135.75 65.184 136.422 65.184C137.062 65.184 137.611 65.04 138.07 64.752C138.539 64.4533 138.88 64.0267 139.094 63.472L139.35 64.256C139.136 64.8107 138.763 65.2533 138.23 65.584C137.707 65.9147 137.046 66.08 136.246 66.08ZM144.115 66V54.128H145.251V66H144.115Z" fill="black"/>
<rect width="82" height="40" transform="translate(164 40)" fill="#ED6B1E" fill-opacity="0.5"/>
<path d="M184.824 66V54.8H185.8L190.92 63.536H190.408L195.48 54.8H196.456V66H195.32V56.576H195.592L190.92 64.576H190.36L185.656 56.576H185.96V66H184.824ZM204.233 66.08C203.359 66.08 202.591 65.8987 201.929 65.536C201.268 65.1627 200.751 64.656 200.377 64.016C200.004 63.3653 199.817 62.624 199.817 61.792C199.817 60.96 199.993 60.224 200.345 59.584C200.708 58.944 201.199 58.4427 201.817 58.08C202.447 57.7067 203.151 57.52 203.929 57.52C204.719 57.52 205.417 57.7013 206.025 58.064C206.644 58.416 207.129 58.9173 207.481 59.568C207.833 60.208 208.009 60.9493 208.009 61.792C208.009 61.8453 208.004 61.904 207.993 61.968C207.993 62.0213 207.993 62.08 207.993 62.144H200.681V61.296H207.385L206.937 61.632C206.937 61.024 206.804 60.4853 206.537 60.016C206.281 59.536 205.929 59.1627 205.481 58.896C205.033 58.6293 204.516 58.496 203.929 58.496C203.353 58.496 202.836 58.6293 202.377 58.896C201.919 59.1627 201.561 59.536 201.305 60.016C201.049 60.496 200.921 61.0453 200.921 61.664V61.84C200.921 62.48 201.06 63.0453 201.337 63.536C201.625 64.016 202.02 64.3947 202.521 64.672C203.033 64.9387 203.615 65.072 204.265 65.072C204.777 65.072 205.252 64.9813 205.689 64.8C206.137 64.6187 206.521 64.3413 206.841 63.968L207.481 64.704C207.108 65.152 206.639 65.4933 206.073 65.728C205.519 65.9627 204.905 66.08 204.233 66.08ZM211.122 66V57.6H212.21V59.888L212.098 59.488C212.332 58.848 212.727 58.3627 213.282 58.032C213.836 57.6907 214.524 57.52 215.346 57.52V58.624C215.303 58.624 215.26 58.624 215.218 58.624C215.175 58.6133 215.132 58.608 215.09 58.608C214.204 58.608 213.511 58.88 213.01 59.424C212.508 59.9573 212.258 60.72 212.258 61.712V66H211.122ZM219.114 63.824L219.146 62.368L224.378 57.6H225.77L222.074 61.136L221.434 61.68L219.114 63.824ZM218.218 66V54.128H219.354V66H218.218ZM224.73 66L221.226 61.632L221.962 60.752L226.122 66H224.73Z" fill="black"/>
<rect width="82" height="40" transform="translate(246 40)" fill="#ED6B1E" fill-opacity="0.5"/>
<path d="M270.5 66V55.824H266.564V54.8H275.62V55.824H271.684V66H270.5ZM277.589 69.184C277.194 69.184 276.815 69.12 276.453 68.992C276.101 68.864 275.797 68.672 275.541 68.416L276.069 67.568C276.282 67.7707 276.511 67.9253 276.757 68.032C277.013 68.1493 277.295 68.208 277.605 68.208C277.978 68.208 278.298 68.1013 278.565 67.888C278.842 67.6853 279.103 67.3227 279.349 66.8L279.893 65.568L280.021 65.392L283.477 57.6H284.597L280.389 67.008C280.154 67.552 279.893 67.984 279.605 68.304C279.327 68.624 279.023 68.848 278.693 68.976C278.362 69.1147 277.994 69.184 277.589 69.184ZM279.829 66.24L275.957 57.6H277.141L280.565 65.312L279.829 66.24ZM291.333 66.08C290.607 66.08 289.951 65.9147 289.365 65.584C288.778 65.2427 288.309 64.7573 287.957 64.128C287.615 63.488 287.445 62.7093 287.445 61.792C287.445 60.8747 287.615 60.1013 287.957 59.472C288.298 58.832 288.762 58.3467 289.349 58.016C289.935 57.6853 290.597 57.52 291.333 57.52C292.133 57.52 292.847 57.7013 293.477 58.064C294.117 58.416 294.618 58.9173 294.981 59.568C295.343 60.208 295.525 60.9493 295.525 61.792C295.525 62.6453 295.343 63.392 294.981 64.032C294.618 64.672 294.117 65.1733 293.477 65.536C292.847 65.8987 292.133 66.08 291.333 66.08ZM286.997 69.104V57.6H288.085V60.128L287.973 61.808L288.133 63.504V69.104H286.997ZM291.253 65.072C291.85 65.072 292.383 64.9387 292.853 64.672C293.322 64.3947 293.695 64.0107 293.973 63.52C294.25 63.0187 294.389 62.4427 294.389 61.792C294.389 61.1413 294.25 60.5707 293.973 60.08C293.695 59.5893 293.322 59.2053 292.853 58.928C292.383 58.6507 291.85 58.512 291.253 58.512C290.655 58.512 290.117 58.6507 289.637 58.928C289.167 59.2053 288.794 59.5893 288.517 60.08C288.25 60.5707 288.117 61.1413 288.117 61.792C288.117 62.4427 288.25 63.0187 288.517 63.52C288.794 64.0107 289.167 64.3947 289.637 64.672C290.117 64.9387 290.655 65.072 291.253 65.072ZM302.208 66.08C301.334 66.08 300.566 65.8987 299.904 65.536C299.243 65.1627 298.726 64.656 298.352 64.016C297.979 63.3653 297.792 62.624 297.792 61.792C297.792 60.96 297.968 60.224 298.32 59.584C298.683 58.944 299.174 58.4427 299.792 58.08C300.422 57.7067 301.126 57.52 301.904 57.52C302.694 57.52 303.392 57.7013 304 58.064C304.619 58.416 305.104 58.9173 305.456 59.568C305.808 60.208 305.984 60.9493 305.984 61.792C305.984 61.8453 305.979 61.904 305.968 61.968C305.968 62.0213 305.968 62.08 305.968 62.144H298.656V61.296H305.36L304.912 61.632C304.912 61.024 304.779 60.4853 304.512 60.016C304.256 59.536 303.904 59.1627 303.456 58.896C303.008 58.6293 302.491 58.496 301.904 58.496C301.328 58.496 300.811 58.6293 300.352 58.896C299.894 59.1627 299.536 59.536 299.28 60.016C299.024 60.496 298.896 61.0453 298.896 61.664V61.84C298.896 62.48 299.035 63.0453 299.312 63.536C299.6 64.016 299.995 64.3947 300.496 64.672C301.008 64.9387 301.59 65.072 302.24 65.072C302.752 65.072 303.227 64.9813 303.664 64.8C304.112 64.6187 304.496 64.3413 304.816 63.968L305.456 64.704C305.083 65.152 304.614 65.4933 304.048 65.728C303.494 65.9627 302.88 66.08 302.208 66.08Z" fill="black"/>
<rect width="82" height="40" transform="translate(328 40)" fill="#ED6B1E" fill-opacity="0.5"/>
<path d="M351.032 66L356.152 54.8H357.32L362.44 66H361.192L356.488 55.488H356.968L352.264 66H351.032ZM353.048 63.008L353.4 62.048H359.912L360.264 63.008H353.048ZM367.031 66.08C366.337 66.08 365.681 65.984 365.063 65.792C364.444 65.5893 363.959 65.3387 363.607 65.04L364.119 64.144C364.46 64.4 364.897 64.624 365.431 64.816C365.964 64.9973 366.524 65.088 367.111 65.088C367.911 65.088 368.487 64.9653 368.839 64.72C369.191 64.464 369.367 64.128 369.367 63.712C369.367 63.4027 369.265 63.1627 369.063 62.992C368.871 62.8107 368.615 62.6773 368.295 62.592C367.975 62.496 367.617 62.416 367.223 62.352C366.828 62.288 366.433 62.2133 366.039 62.128C365.655 62.0427 365.303 61.92 364.983 61.76C364.663 61.5893 364.401 61.36 364.199 61.072C364.007 60.784 363.911 60.4 363.911 59.92C363.911 59.4613 364.039 59.0507 364.295 58.688C364.551 58.3253 364.924 58.0427 365.415 57.84C365.916 57.6267 366.524 57.52 367.239 57.52C367.783 57.52 368.327 57.5947 368.871 57.744C369.415 57.8827 369.863 58.0693 370.215 58.304L369.719 59.216C369.345 58.96 368.945 58.7787 368.519 58.672C368.092 58.5547 367.665 58.496 367.239 58.496C366.481 58.496 365.921 58.6293 365.559 58.896C365.207 59.152 365.031 59.4827 365.031 59.888C365.031 60.208 365.127 60.4587 365.319 60.64C365.521 60.8213 365.783 60.9653 366.103 61.072C366.433 61.168 366.791 61.248 367.175 61.312C367.569 61.376 367.959 61.456 368.343 61.552C368.737 61.6373 369.095 61.76 369.415 61.92C369.745 62.0693 370.007 62.288 370.199 62.576C370.401 62.8533 370.503 63.2213 370.503 63.68C370.503 64.1707 370.364 64.5973 370.087 64.96C369.82 65.312 369.425 65.5893 368.903 65.792C368.391 65.984 367.767 66.08 367.031 66.08ZM378.651 66V64.144L378.603 63.84V60.736C378.603 60.0213 378.4 59.472 377.995 59.088C377.6 58.704 377.008 58.512 376.219 58.512C375.675 58.512 375.158 58.6027 374.667 58.784C374.176 58.9653 373.76 59.2053 373.419 59.504L372.907 58.656C373.334 58.2933 373.846 58.016 374.443 57.824C375.04 57.6213 375.67 57.52 376.331 57.52C377.419 57.52 378.256 57.792 378.843 58.336C379.44 58.8693 379.739 59.6853 379.739 60.784V66H378.651ZM375.755 66.08C375.126 66.08 374.576 65.9787 374.107 65.776C373.648 65.5627 373.296 65.2747 373.051 64.912C372.806 64.5387 372.683 64.112 372.683 63.632C372.683 63.1947 372.784 62.8 372.987 62.448C373.2 62.0853 373.542 61.7973 374.011 61.584C374.491 61.36 375.131 61.248 375.931 61.248H378.827V62.096H375.963C375.152 62.096 374.587 62.24 374.267 62.528C373.958 62.816 373.803 63.1733 373.803 63.6C373.803 64.08 373.99 64.464 374.363 64.752C374.736 65.04 375.259 65.184 375.931 65.184C376.571 65.184 377.12 65.04 377.579 64.752C378.048 64.4533 378.39 64.0267 378.603 63.472L378.859 64.256C378.646 64.8107 378.272 65.2533 377.739 65.584C377.216 65.9147 376.555 66.08 375.755 66.08ZM383.625 66V54.128H384.761V66H383.625Z" fill="black"/>
<rect width="82" height="40" transform="translate(410 40)" fill="#ED6B1E" fill-opacity="0.5"/>
<path d="M409 66V55.824H405.064V54.8H414.12V55.824H410.184V66H409ZM419.281 69.184C418.513 69.184 417.777 69.072 417.073 68.848C416.369 68.624 415.798 68.304 415.361 67.888L415.937 67.024C416.331 67.376 416.817 67.6533 417.393 67.856C417.979 68.0693 418.598 68.176 419.249 68.176C420.315 68.176 421.099 67.9253 421.601 67.424C422.102 66.9333 422.353 66.1653 422.353 65.12V63.024L422.513 61.584L422.401 60.144V57.6H423.489V64.976C423.489 66.4267 423.131 67.488 422.417 68.16C421.713 68.8427 420.667 69.184 419.281 69.184ZM419.073 65.68C418.273 65.68 417.553 65.5093 416.913 65.168C416.273 64.816 415.766 64.3307 415.393 63.712C415.03 63.0933 414.849 62.384 414.849 61.584C414.849 60.784 415.03 60.08 415.393 59.472C415.766 58.8533 416.273 58.3733 416.913 58.032C417.553 57.6907 418.273 57.52 419.073 57.52C419.819 57.52 420.491 57.6747 421.089 57.984C421.686 58.2933 422.161 58.752 422.513 59.36C422.865 59.968 423.041 60.7093 423.041 61.584C423.041 62.4587 422.865 63.2 422.513 63.808C422.161 64.416 421.686 64.88 421.089 65.2C420.491 65.52 419.819 65.68 419.073 65.68ZM419.185 64.672C419.803 64.672 420.353 64.544 420.833 64.288C421.313 64.0213 421.691 63.6587 421.969 63.2C422.246 62.7307 422.385 62.192 422.385 61.584C422.385 60.976 422.246 60.4427 421.969 59.984C421.691 59.5253 421.313 59.168 420.833 58.912C420.353 58.6453 419.803 58.512 419.185 58.512C418.577 58.512 418.027 58.6453 417.537 58.912C417.057 59.168 416.678 59.5253 416.401 59.984C416.134 60.4427 416.001 60.976 416.001 61.584C416.001 62.192 416.134 62.7307 416.401 63.2C416.678 63.6587 417.057 64.0213 417.537 64.288C418.027 64.544 418.577 64.672 419.185 64.672ZM427.45 66V54.128H428.586V66H427.45ZM430.962 66.768V66H438.962V66.768H430.962ZM442.071 66V54.8H443.047L448.167 63.536H447.655L452.727 54.8H453.703V66H452.567V56.576H452.839L448.167 64.576H447.607L442.903 56.576H443.207V66H442.071ZM463.176 66V64.144L463.128 63.84V60.736C463.128 60.0213 462.925 59.472 462.52 59.088C462.125 58.704 461.533 58.512 460.744 58.512C460.2 58.512 459.683 58.6027 459.192 58.784C458.701 58.9653 458.285 59.2053 457.944 59.504L457.432 58.656C457.859 58.2933 458.371 58.016 458.968 57.824C459.565 57.6213 460.195 57.52 460.856 57.52C461.944 57.52 462.781 57.792 463.368 58.336C463.965 58.8693 464.264 59.6853 464.264 60.784V66H463.176ZM460.28 66.08C459.651 66.08 459.101 65.9787 458.632 65.776C458.173 65.5627 457.821 65.2747 457.576 64.912C457.331 64.5387 457.208 64.112 457.208 63.632C457.208 63.1947 457.309 62.8 457.512 62.448C457.725 62.0853 458.067 61.7973 458.536 61.584C459.016 61.36 459.656 61.248 460.456 61.248H463.352V62.096H460.488C459.677 62.096 459.112 62.24 458.792 62.528C458.483 62.816 458.328 63.1733 458.328 63.6C458.328 64.08 458.515 64.464 458.888 64.752C459.261 65.04 459.784 65.184 460.456 65.184C461.096 65.184 461.645 65.04 462.104 64.752C462.573 64.4533 462.915 64.0267 463.128 63.472L463.384 64.256C463.171 64.8107 462.797 65.2533 462.264 65.584C461.741 65.9147 461.08 66.08 460.28 66.08ZM470.406 66.08C469.712 66.08 469.056 65.984 468.438 65.792C467.819 65.5893 467.334 65.3387 466.982 65.04L467.494 64.144C467.835 64.4 468.272 64.624 468.806 64.816C469.339 64.9973 469.899 65.088 470.486 65.088C471.286 65.088 471.862 64.9653 472.214 64.72C472.566 64.464 472.742 64.128 472.742 63.712C472.742 63.4027 472.64 63.1627 472.438 62.992C472.246 62.8107 471.99 62.6773 471.67 62.592C471.35 62.496 470.992 62.416 470.598 62.352C470.203 62.288 469.808 62.2133 469.414 62.128C469.03 62.0427 468.678 61.92 468.358 61.76C468.038 61.5893 467.776 61.36 467.574 61.072C467.382 60.784 467.286 60.4 467.286 59.92C467.286 59.4613 467.414 59.0507 467.67 58.688C467.926 58.3253 468.299 58.0427 468.79 57.84C469.291 57.6267 469.899 57.52 470.614 57.52C471.158 57.52 471.702 57.5947 472.246 57.744C472.79 57.8827 473.238 58.0693 473.59 58.304L473.094 59.216C472.72 58.96 472.32 58.7787 471.894 58.672C471.467 58.5547 471.04 58.496 470.614 58.496C469.856 58.496 469.296 58.6293 468.934 58.896C468.582 59.152 468.406 59.4827 468.406 59.888C468.406 60.208 468.502 60.4587 468.694 60.64C468.896 60.8213 469.158 60.9653 469.478 61.072C469.808 61.168 470.166 61.248 470.55 61.312C470.944 61.376 471.334 61.456 471.718 61.552C472.112 61.6373 472.47 61.76 472.79 61.92C473.12 62.0693 473.382 62.288 473.574 62.576C473.776 62.8533 473.878 63.2213 473.878 63.68C473.878 64.1707 473.739 64.5973 473.462 64.96C473.195 65.312 472.8 65.5893 472.278 65.792C471.766 65.984 471.142 66.08 470.406 66.08ZM480.234 66.08C479.519 66.08 478.895 65.9467 478.362 65.68C477.829 65.4133 477.413 65.0133 477.114 64.48C476.826 63.9467 476.682 63.28 476.682 62.48V57.6H477.818V62.352C477.818 63.248 478.037 63.9253 478.474 64.384C478.922 64.832 479.546 65.056 480.346 65.056C480.933 65.056 481.439 64.9387 481.866 64.704C482.303 64.4587 482.634 64.1067 482.858 63.648C483.093 63.1893 483.21 62.64 483.21 62V57.6H484.346V66H483.258V63.696L483.434 64.112C483.167 64.7307 482.751 65.216 482.186 65.568C481.631 65.9093 480.981 66.08 480.234 66.08ZM489.208 63.824L489.24 62.368L494.472 57.6H495.864L492.168 61.136L491.528 61.68L489.208 63.824ZM488.312 66V54.128H489.448V66H488.312ZM494.824 66L491.32 61.632L492.056 60.752L496.216 66H494.824Z" fill="black"/>
<rect width="82" height="40" transform="translate(492 40)" fill="#ED6B1E" fill-opacity="0.5"/>
<path d="M504.324 66V54.8H508.884C510.079 54.8 511.124 55.04 512.02 55.52C512.927 55.9893 513.631 56.6453 514.132 57.488C514.633 58.3307 514.884 59.3013 514.884 60.4C514.884 61.4987 514.633 62.4693 514.132 63.312C513.631 64.1547 512.927 64.816 512.02 65.296C511.124 65.7653 510.079 66 508.884 66H504.324ZM505.508 64.976H508.82C509.812 64.976 510.671 64.784 511.396 64.4C512.132 64.0053 512.703 63.4667 513.108 62.784C513.513 62.0907 513.716 61.296 513.716 60.4C513.716 59.4933 513.513 58.6987 513.108 58.016C512.703 57.3333 512.132 56.8 511.396 56.416C510.671 56.0213 509.812 55.824 508.82 55.824H505.508V64.976ZM521.671 66.08C520.796 66.08 520.028 65.8987 519.367 65.536C518.705 65.1627 518.188 64.656 517.815 64.016C517.441 63.3653 517.255 62.624 517.255 61.792C517.255 60.96 517.431 60.224 517.783 59.584C518.145 58.944 518.636 58.4427 519.255 58.08C519.884 57.7067 520.588 57.52 521.367 57.52C522.156 57.52 522.855 57.7013 523.463 58.064C524.081 58.416 524.567 58.9173 524.919 59.568C525.271 60.208 525.447 60.9493 525.447 61.792C525.447 61.8453 525.441 61.904 525.431 61.968C525.431 62.0213 525.431 62.08 525.431 62.144H518.119V61.296H524.823L524.375 61.632C524.375 61.024 524.241 60.4853 523.975 60.016C523.719 59.536 523.367 59.1627 522.919 58.896C522.471 58.6293 521.953 58.496 521.367 58.496C520.791 58.496 520.273 58.6293 519.815 58.896C519.356 59.1627 518.999 59.536 518.743 60.016C518.487 60.496 518.359 61.0453 518.359 61.664V61.84C518.359 62.48 518.497 63.0453 518.775 63.536C519.063 64.016 519.457 64.3947 519.959 64.672C520.471 64.9387 521.052 65.072 521.703 65.072C522.215 65.072 522.689 64.9813 523.127 64.8C523.575 64.6187 523.959 64.3413 524.279 63.968L524.919 64.704C524.545 65.152 524.076 65.4933 523.511 65.728C522.956 65.9627 522.343 66.08 521.671 66.08ZM531.215 66.08C530.426 66.08 529.818 65.8667 529.391 65.44C528.964 65.0133 528.751 64.4107 528.751 63.632V55.744H529.887V63.568C529.887 64.0587 530.01 64.4373 530.255 64.704C530.511 64.9707 530.874 65.104 531.343 65.104C531.844 65.104 532.26 64.96 532.591 64.672L532.991 65.488C532.767 65.6907 532.495 65.84 532.175 65.936C531.866 66.032 531.546 66.08 531.215 66.08ZM527.247 58.544V57.6H532.447V58.544H527.247ZM541.123 66V64.144L541.075 63.84V60.736C541.075 60.0213 540.872 59.472 540.467 59.088C540.072 58.704 539.48 58.512 538.691 58.512C538.147 58.512 537.63 58.6027 537.139 58.784C536.648 58.9653 536.232 59.2053 535.891 59.504L535.379 58.656C535.806 58.2933 536.318 58.016 536.915 57.824C537.512 57.6213 538.142 57.52 538.803 57.52C539.891 57.52 540.728 57.792 541.315 58.336C541.912 58.8693 542.211 59.6853 542.211 60.784V66H541.123ZM538.227 66.08C537.598 66.08 537.048 65.9787 536.579 65.776C536.12 65.5627 535.768 65.2747 535.523 64.912C535.278 64.5387 535.155 64.112 535.155 63.632C535.155 63.1947 535.256 62.8 535.459 62.448C535.672 62.0853 536.014 61.7973 536.483 61.584C536.963 61.36 537.603 61.248 538.403 61.248H541.299V62.096H538.435C537.624 62.096 537.059 62.24 536.739 62.528C536.43 62.816 536.275 63.1733 536.275 63.6C536.275 64.08 536.462 64.464 536.835 64.752C537.208 65.04 537.731 65.184 538.403 65.184C539.043 65.184 539.592 65.04 540.051 64.752C540.52 64.4533 540.862 64.0267 541.075 63.472L541.331 64.256C541.118 64.8107 540.744 65.2533 540.211 65.584C539.688 65.9147 539.027 66.08 538.227 66.08ZM546.097 66V57.6H547.233V66H546.097ZM546.673 55.744C546.438 55.744 546.241 55.664 546.081 55.504C545.921 55.344 545.841 55.152 545.841 54.928C545.841 54.704 545.921 54.5173 546.081 54.368C546.241 54.208 546.438 54.128 546.673 54.128C546.907 54.128 547.105 54.2027 547.265 54.352C547.425 54.5013 547.505 54.688 547.505 54.912C547.505 55.1467 547.425 55.344 547.265 55.504C547.115 55.664 546.918 55.744 546.673 55.744ZM551.193 66V54.128H552.329V66H551.193ZM558.546 66.08C557.853 66.08 557.197 65.984 556.578 65.792C555.96 65.5893 555.474 65.3387 555.122 65.04L555.634 64.144C555.976 64.4 556.413 64.624 556.946 64.816C557.48 64.9973 558.04 65.088 558.626 65.088C559.426 65.088 560.002 64.9653 560.354 64.72C560.706 64.464 560.882 64.128 560.882 63.712C560.882 63.4027 560.781 63.1627 560.578 62.992C560.386 62.8107 560.13 62.6773 559.81 62.592C559.49 62.496 559.133 62.416 558.738 62.352C558.344 62.288 557.949 62.2133 557.554 62.128C557.17 62.0427 556.818 61.92 556.498 61.76C556.178 61.5893 555.917 61.36 555.714 61.072C555.522 60.784 555.426 60.4 555.426 59.92C555.426 59.4613 555.554 59.0507 555.81 58.688C556.066 58.3253 556.44 58.0427 556.93 57.84C557.432 57.6267 558.04 57.52 558.754 57.52C559.298 57.52 559.842 57.5947 560.386 57.744C560.93 57.8827 561.378 58.0693 561.73 58.304L561.234 59.216C560.861 58.96 560.461 58.7787 560.034 58.672C559.608 58.5547 559.181 58.496 558.754 58.496C557.997 58.496 557.437 58.6293 557.074 58.896C556.722 59.152 556.546 59.4827 556.546 59.888C556.546 60.208 556.642 60.4587 556.834 60.64C557.037 60.8213 557.298 60.9653 557.618 61.072C557.949 61.168 558.306 61.248 558.69 61.312C559.085 61.376 559.474 61.456 559.858 61.552C560.253 61.6373 560.61 61.76 560.93 61.92C561.261 62.0693 561.522 62.288 561.714 62.576C561.917 62.8533 562.018 63.2213 562.018 63.68C562.018 64.1707 561.88 64.5973 561.602 64.96C561.336 65.312 560.941 65.5893 560.418 65.792C559.906 65.984 559.282 66.08 558.546 66.08Z" fill="black"/>
<rect width="82" height="40" transform="translate(0 80)" fill="#ED6B1E" fill-opacity="0.5"/>
<path d="M3.324 106V94.8H4.3L12.028 104.528H11.516V94.8H12.684V106H11.708L3.996 96.272H4.508V106H3.324ZM20.3236 106.08C19.513 106.08 18.7823 105.899 18.1316 105.536C17.4916 105.163 16.985 104.656 16.6116 104.016C16.2383 103.365 16.0516 102.624 16.0516 101.792C16.0516 100.949 16.2383 100.208 16.6116 99.568C16.985 98.928 17.4916 98.4267 18.1316 98.064C18.7716 97.7013 19.5023 97.52 20.3236 97.52C21.1556 97.52 21.8916 97.7013 22.5316 98.064C23.1823 98.4267 23.689 98.928 24.0516 99.568C24.425 100.208 24.6116 100.949 24.6116 101.792C24.6116 102.624 24.425 103.365 24.0516 104.016C23.689 104.656 23.1823 105.163 22.5316 105.536C21.881 105.899 21.145 106.08 20.3236 106.08ZM20.3236 105.072C20.9316 105.072 21.4703 104.939 21.9396 104.672C22.409 104.395 22.777 104.011 23.0436 103.52C23.321 103.019 23.4596 102.443 23.4596 101.792C23.4596 101.131 23.321 100.555 23.0436 100.064C22.777 99.5733 22.409 99.1947 21.9396 98.928C21.4703 98.6507 20.937 98.512 20.3396 98.512C19.7423 98.512 19.209 98.6507 18.7396 98.928C18.2703 99.1947 17.897 99.5733 17.6196 100.064C17.3423 100.555 17.2036 101.131 17.2036 101.792C17.2036 102.443 17.3423 103.019 17.6196 103.52C17.897 104.011 18.2703 104.395 18.7396 104.672C19.209 104.939 19.737 105.072 20.3236 105.072ZM27.6085 106.08C27.3738 106.08 27.1712 105.995 27.0005 105.824C26.8405 105.653 26.7605 105.445 26.7605 105.2C26.7605 104.944 26.8405 104.736 27.0005 104.576C27.1712 104.416 27.3738 104.336 27.6085 104.336C27.8432 104.336 28.0405 104.416 28.2005 104.576C28.3712 104.736 28.4565 104.944 28.4565 105.2C28.4565 105.445 28.3712 105.653 28.2005 105.824C28.0405 105.995 27.8432 106.08 27.6085 106.08ZM36.5106 106.096C35.668 106.096 34.884 105.957 34.1586 105.68C33.444 105.392 32.82 104.992 32.2866 104.48C31.764 103.957 31.3533 103.355 31.0546 102.672C30.7666 101.979 30.6226 101.221 30.6226 100.4C30.6226 99.5787 30.7666 98.8267 31.0546 98.144C31.3533 97.4507 31.764 96.848 32.2866 96.336C32.82 95.8133 33.444 95.4133 34.1586 95.136C34.8733 94.848 35.6573 94.704 36.5106 94.704C37.3533 94.704 38.132 94.848 38.8466 95.136C39.5613 95.4133 40.18 95.808 40.7026 96.32C41.236 96.832 41.6466 97.4347 41.9346 98.128C42.2333 98.8213 42.3826 99.5787 42.3826 100.4C42.3826 101.221 42.2333 101.979 41.9346 102.672C41.6466 103.365 41.236 103.968 40.7026 104.48C40.18 104.992 39.5613 105.392 38.8466 105.68C38.132 105.957 37.3533 106.096 36.5106 106.096ZM36.5106 105.04C37.1826 105.04 37.8013 104.928 38.3666 104.704C38.9426 104.469 39.4386 104.144 39.8546 103.728C40.2813 103.301 40.612 102.811 40.8466 102.256C41.0813 101.691 41.1986 101.072 41.1986 100.4C41.1986 99.728 41.0813 99.1147 40.8466 98.56C40.612 97.9947 40.2813 97.504 39.8546 97.088C39.4386 96.6613 38.9426 96.336 38.3666 96.112C37.8013 95.8773 37.1826 95.76 36.5106 95.76C35.8386 95.76 35.2146 95.8773 34.6386 96.112C34.0626 96.336 33.5613 96.6613 33.1346 97.088C32.7186 97.504 32.388 97.9947 32.1426 98.56C31.908 99.1147 31.7906 99.728 31.7906 100.4C31.7906 101.061 31.908 101.675 32.1426 102.24C32.388 102.805 32.7186 103.301 33.1346 103.728C33.5613 104.144 34.0626 104.469 34.6386 104.704C35.2146 104.928 35.8386 105.04 36.5106 105.04ZM45.5965 106V97.6H46.6845V99.888L46.5725 99.488C46.8072 98.848 47.2018 98.3627 47.7565 98.032C48.3112 97.6907 48.9992 97.52 49.8205 97.52V98.624C49.7778 98.624 49.7352 98.624 49.6925 98.624C49.6498 98.6133 49.6072 98.608 49.5645 98.608C48.6792 98.608 47.9858 98.88 47.4845 99.424C46.9832 99.9573 46.7325 100.72 46.7325 101.712V106H45.5965ZM55.9593 106.08C55.1593 106.08 54.4393 105.899 53.7993 105.536C53.1699 105.173 52.6739 104.672 52.3113 104.032C51.9486 103.381 51.7673 102.635 51.7673 101.792C51.7673 100.939 51.9486 100.192 52.3113 99.552C52.6739 98.912 53.1699 98.416 53.7993 98.064C54.4393 97.7013 55.1593 97.52 55.9593 97.52C56.6953 97.52 57.3513 97.6853 57.9273 98.016C58.5139 98.3467 58.9779 98.832 59.3193 99.472C59.6713 100.101 59.8472 100.875 59.8472 101.792C59.8472 102.699 59.6766 103.472 59.3353 104.112C58.9939 104.752 58.5299 105.243 57.9433 105.584C57.3673 105.915 56.7059 106.08 55.9593 106.08ZM56.0393 105.072C56.6366 105.072 57.1699 104.939 57.6393 104.672C58.1193 104.395 58.4926 104.011 58.7593 103.52C59.0366 103.019 59.1753 102.443 59.1753 101.792C59.1753 101.131 59.0366 100.555 58.7593 100.064C58.4926 99.5733 58.1193 99.1947 57.6393 98.928C57.1699 98.6507 56.6366 98.512 56.0393 98.512C55.4526 98.512 54.9246 98.6507 54.4553 98.928C53.9859 99.1947 53.6126 99.5733 53.3353 100.064C53.0579 100.555 52.9193 101.131 52.9193 101.792C52.9193 102.443 53.0579 103.019 53.3353 103.52C53.6126 104.011 53.9859 104.395 54.4553 104.672C54.9246 104.939 55.4526 105.072 56.0393 105.072ZM59.2073 106V103.472L59.3193 101.776L59.1593 100.08V94.128H60.2953V106H59.2073ZM67.827 106.08C66.9523 106.08 66.1843 105.899 65.523 105.536C64.8617 105.163 64.3443 104.656 63.971 104.016C63.5977 103.365 63.411 102.624 63.411 101.792C63.411 100.96 63.587 100.224 63.939 99.584C64.3017 98.944 64.7923 98.4427 65.411 98.08C66.0403 97.7067 66.7443 97.52 67.523 97.52C68.3123 97.52 69.011 97.7013 69.619 98.064C70.2377 98.416 70.723 98.9173 71.075 99.568C71.427 100.208 71.603 100.949 71.603 101.792C71.603 101.845 71.5977 101.904 71.587 101.968C71.587 102.021 71.587 102.08 71.587 102.144H64.275V101.296H70.979L70.531 101.632C70.531 101.024 70.3977 100.485 70.131 100.016C69.875 99.536 69.523 99.1627 69.075 98.896C68.627 98.6293 68.1097 98.496 67.523 98.496C66.947 98.496 66.4297 98.6293 65.971 98.896C65.5123 99.1627 65.155 99.536 64.899 100.016C64.643 100.496 64.515 101.045 64.515 101.664V101.84C64.515 102.48 64.6537 103.045 64.931 103.536C65.219 104.016 65.6137 104.395 66.115 104.672C66.627 104.939 67.2083 105.072 67.859 105.072C68.371 105.072 68.8457 104.981 69.283 104.8C69.731 104.619 70.115 104.341 70.435 103.968L71.075 104.704C70.7017 105.152 70.2323 105.493 69.667 105.728C69.1123 105.963 68.499 106.08 67.827 106.08ZM74.7152 106V97.6H75.8032V99.888L75.6912 99.488C75.9259 98.848 76.3206 98.3627 76.8752 98.032C77.4299 97.6907 78.1179 97.52 78.9392 97.52V98.624C78.8966 98.624 78.8539 98.624 78.8112 98.624C78.7686 98.6133 78.7259 98.608 78.6832 98.608C77.7979 98.608 77.1046 98.88 76.6032 99.424C76.1019 99.9573 75.8512 100.72 75.8512 101.712V106H74.7152Z" fill="black"/>
<rect width="82" height="40" transform="translate(82 80)" fill="#ED6B1E" fill-opacity="0.5"/>
<path d="M103.912 106.096C103.08 106.096 102.28 105.963 101.512 105.696C100.755 105.419 100.168 105.067 99.752 104.64L100.216 103.728C100.611 104.112 101.139 104.437 101.8 104.704C102.472 104.96 103.176 105.088 103.912 105.088C104.616 105.088 105.187 105.003 105.624 104.832C106.072 104.651 106.397 104.411 106.6 104.112C106.813 103.813 106.92 103.483 106.92 103.12C106.92 102.683 106.792 102.331 106.536 102.064C106.291 101.797 105.965 101.589 105.56 101.44C105.155 101.28 104.707 101.141 104.216 101.024C103.725 100.907 103.235 100.784 102.744 100.656C102.253 100.517 101.8 100.336 101.384 100.112C100.979 99.888 100.648 99.5947 100.392 99.232C100.147 98.8587 100.024 98.3733 100.024 97.776C100.024 97.2213 100.168 96.7147 100.456 96.256C100.755 95.7867 101.208 95.4133 101.816 95.136C102.424 94.848 103.203 94.704 104.152 94.704C104.781 94.704 105.405 94.7947 106.024 94.976C106.643 95.1467 107.176 95.3867 107.624 95.696L107.224 96.64C106.744 96.32 106.232 96.0853 105.688 95.936C105.155 95.7867 104.637 95.712 104.136 95.712C103.464 95.712 102.909 95.8027 102.472 95.984C102.035 96.1653 101.709 96.4107 101.496 96.72C101.293 97.0187 101.192 97.36 101.192 97.744C101.192 98.1813 101.315 98.5333 101.56 98.8C101.816 99.0667 102.147 99.2747 102.552 99.424C102.968 99.5733 103.421 99.7067 103.912 99.824C104.403 99.9413 104.888 100.069 105.368 100.208C105.859 100.347 106.307 100.528 106.712 100.752C107.128 100.965 107.459 101.253 107.704 101.616C107.96 101.979 108.088 102.453 108.088 103.04C108.088 103.584 107.939 104.091 107.64 104.56C107.341 105.019 106.883 105.392 106.264 105.68C105.656 105.957 104.872 106.096 103.912 106.096ZM114.796 106.08C113.921 106.08 113.153 105.899 112.492 105.536C111.83 105.163 111.313 104.656 110.94 104.016C110.566 103.365 110.38 102.624 110.38 101.792C110.38 100.96 110.556 100.224 110.908 99.584C111.27 98.944 111.761 98.4427 112.38 98.08C113.009 97.7067 113.713 97.52 114.492 97.52C115.281 97.52 115.98 97.7013 116.588 98.064C117.206 98.416 117.692 98.9173 118.044 99.568C118.396 100.208 118.572 100.949 118.572 101.792C118.572 101.845 118.566 101.904 118.556 101.968C118.556 102.021 118.556 102.08 118.556 102.144H111.244V101.296H117.948L117.5 101.632C117.5 101.024 117.366 100.485 117.1 100.016C116.844 99.536 116.492 99.1627 116.044 98.896C115.596 98.6293 115.078 98.496 114.492 98.496C113.916 98.496 113.398 98.6293 112.94 98.896C112.481 99.1627 112.124 99.536 111.868 100.016C111.612 100.496 111.484 101.045 111.484 101.664V101.84C111.484 102.48 111.622 103.045 111.9 103.536C112.188 104.016 112.582 104.395 113.084 104.672C113.596 104.939 114.177 105.072 114.828 105.072C115.34 105.072 115.814 104.981 116.252 104.8C116.7 104.619 117.084 104.341 117.404 103.968L118.044 104.704C117.67 105.152 117.201 105.493 116.636 105.728C116.081 105.963 115.468 106.08 114.796 106.08ZM121.684 106V97.6H122.772V99.888L122.66 99.488C122.895 98.848 123.289 98.3627 123.844 98.032C124.399 97.6907 125.087 97.52 125.908 97.52V98.624C125.865 98.624 125.823 98.624 125.78 98.624C125.737 98.6133 125.695 98.608 125.652 98.608C124.767 98.608 124.073 98.88 123.572 99.424C123.071 99.9573 122.82 100.72 122.82 101.712V106H121.684ZM128.781 106V97.6H129.917V106H128.781ZM129.357 95.744C129.122 95.744 128.925 95.664 128.765 95.504C128.605 95.344 128.525 95.152 128.525 94.928C128.525 94.704 128.605 94.5173 128.765 94.368C128.925 94.208 129.122 94.128 129.357 94.128C129.592 94.128 129.789 94.2027 129.949 94.352C130.109 94.5013 130.189 94.688 130.189 94.912C130.189 95.1467 130.109 95.344 129.949 95.504C129.8 95.664 129.602 95.744 129.357 95.744ZM139.142 106V104.144L139.094 103.84V100.736C139.094 100.021 138.891 99.472 138.486 99.088C138.091 98.704 137.499 98.512 136.71 98.512C136.166 98.512 135.648 98.6027 135.158 98.784C134.667 98.9653 134.251 99.2053 133.91 99.504L133.398 98.656C133.824 98.2933 134.336 98.016 134.934 97.824C135.531 97.6213 136.16 97.52 136.822 97.52C137.91 97.52 138.747 97.792 139.334 98.336C139.931 98.8693 140.23 99.6853 140.23 100.784V106H139.142ZM136.246 106.08C135.616 106.08 135.067 105.979 134.598 105.776C134.139 105.563 133.787 105.275 133.542 104.912C133.296 104.539 133.174 104.112 133.174 103.632C133.174 103.195 133.275 102.8 133.478 102.448C133.691 102.085 134.032 101.797 134.502 101.584C134.982 101.36 135.622 101.248 136.422 101.248H139.318V102.096H136.454C135.643 102.096 135.078 102.24 134.758 102.528C134.448 102.816 134.294 103.173 134.294 103.6C134.294 104.08 134.48 104.464 134.854 104.752C135.227 105.04 135.75 105.184 136.422 105.184C137.062 105.184 137.611 105.04 138.07 104.752C138.539 104.453 138.88 104.027 139.094 103.472L139.35 104.256C139.136 104.811 138.763 105.253 138.23 105.584C137.707 105.915 137.046 106.08 136.246 106.08ZM144.115 106V94.128H145.251V106H144.115Z" fill="black"/>
<rect width="82" height="40" transform="translate(164 80)" fill="#ED6B1E" fill-opacity="0.5"/>
<path d="M184.824 106V94.8H185.8L190.92 103.536H190.408L195.48 94.8H196.456V106H195.32V96.576H195.592L190.92 104.576H190.36L185.656 96.576H185.96V106H184.824ZM204.233 106.08C203.359 106.08 202.591 105.899 201.929 105.536C201.268 105.163 200.751 104.656 200.377 104.016C200.004 103.365 199.817 102.624 199.817 101.792C199.817 100.96 199.993 100.224 200.345 99.584C200.708 98.944 201.199 98.4427 201.817 98.08C202.447 97.7067 203.151 97.52 203.929 97.52C204.719 97.52 205.417 97.7013 206.025 98.064C206.644 98.416 207.129 98.9173 207.481 99.568C207.833 100.208 208.009 100.949 208.009 101.792C208.009 101.845 208.004 101.904 207.993 101.968C207.993 102.021 207.993 102.08 207.993 102.144H200.681V101.296H207.385L206.937 101.632C206.937 101.024 206.804 100.485 206.537 100.016C206.281 99.536 205.929 99.1627 205.481 98.896C205.033 98.6293 204.516 98.496 203.929 98.496C203.353 98.496 202.836 98.6293 202.377 98.896C201.919 99.1627 201.561 99.536 201.305 100.016C201.049 100.496 200.921 101.045 200.921 101.664V101.84C200.921 102.48 201.06 103.045 201.337 103.536C201.625 104.016 202.02 104.395 202.521 104.672C203.033 104.939 203.615 105.072 204.265 105.072C204.777 105.072 205.252 104.981 205.689 104.8C206.137 104.619 206.521 104.341 206.841 103.968L207.481 104.704C207.108 105.152 206.639 105.493 206.073 105.728C205.519 105.963 204.905 106.08 204.233 106.08ZM211.122 106V97.6H212.21V99.888L212.098 99.488C212.332 98.848 212.727 98.3627 213.282 98.032C213.836 97.6907 214.524 97.52 215.346 97.52V98.624C215.303 98.624 215.26 98.624 215.218 98.624C215.175 98.6133 215.132 98.608 215.09 98.608C214.204 98.608 213.511 98.88 213.01 99.424C212.508 99.9573 212.258 100.72 212.258 101.712V106H211.122ZM219.114 103.824L219.146 102.368L224.378 97.6H225.77L222.074 101.136L221.434 101.68L219.114 103.824ZM218.218 106V94.128H219.354V106H218.218ZM224.73 106L221.226 101.632L221.962 100.752L226.122 106H224.73Z" fill="black"/>
<rect width="82" height="40" transform="translate(246 80)" fill="#ED6B1E" fill-opacity="0.5"/>
<path d="M270.5 106V95.824H266.564V94.8H275.62V95.824H271.684V106H270.5ZM277.589 109.184C277.194 109.184 276.815 109.12 276.453 108.992C276.101 108.864 275.797 108.672 275.541 108.416L276.069 107.568C276.282 107.771 276.511 107.925 276.757 108.032C277.013 108.149 277.295 108.208 277.605 108.208C277.978 108.208 278.298 108.101 278.565 107.888C278.842 107.685 279.103 107.323 279.349 106.8L279.893 105.568L280.021 105.392L283.477 97.6H284.597L280.389 107.008C280.154 107.552 279.893 107.984 279.605 108.304C279.327 108.624 279.023 108.848 278.693 108.976C278.362 109.115 277.994 109.184 277.589 109.184ZM279.829 106.24L275.957 97.6H277.141L280.565 105.312L279.829 106.24ZM291.333 106.08C290.607 106.08 289.951 105.915 289.365 105.584C288.778 105.243 288.309 104.757 287.957 104.128C287.615 103.488 287.445 102.709 287.445 101.792C287.445 100.875 287.615 100.101 287.957 99.472C288.298 98.832 288.762 98.3467 289.349 98.016C289.935 97.6853 290.597 97.52 291.333 97.52C292.133 97.52 292.847 97.7013 293.477 98.064C294.117 98.416 294.618 98.9173 294.981 99.568C295.343 100.208 295.525 100.949 295.525 101.792C295.525 102.645 295.343 103.392 294.981 104.032C294.618 104.672 294.117 105.173 293.477 105.536C292.847 105.899 292.133 106.08 291.333 106.08ZM286.997 109.104V97.6H288.085V100.128L287.973 101.808L288.133 103.504V109.104H286.997ZM291.253 105.072C291.85 105.072 292.383 104.939 292.853 104.672C293.322 104.395 293.695 104.011 293.973 103.52C294.25 103.019 294.389 102.443 294.389 101.792C294.389 101.141 294.25 100.571 293.973 100.08C293.695 99.5893 293.322 99.2053 292.853 98.928C292.383 98.6507 291.85 98.512 291.253 98.512C290.655 98.512 290.117 98.6507 289.637 98.928C289.167 99.2053 288.794 99.5893 288.517 100.08C288.25 100.571 288.117 101.141 288.117 101.792C288.117 102.443 288.25 103.019 288.517 103.52C288.794 104.011 289.167 104.395 289.637 104.672C290.117 104.939 290.655 105.072 291.253 105.072ZM302.208 106.08C301.334 106.08 300.566 105.899 299.904 105.536C299.243 105.163 298.726 104.656 298.352 104.016C297.979 103.365 297.792 102.624 297.792 101.792C297.792 100.96 297.968 100.224 298.32 99.584C298.683 98.944 299.174 98.4427 299.792 98.08C300.422 97.7067 301.126 97.52 301.904 97.52C302.694 97.52 303.392 97.7013 304 98.064C304.619 98.416 305.104 98.9173 305.456 99.568C305.808 100.208 305.984 100.949 305.984 101.792C305.984 101.845 305.979 101.904 305.968 101.968C305.968 102.021 305.968 102.08 305.968 102.144H298.656V101.296H305.36L304.912 101.632C304.912 101.024 304.779 100.485 304.512 100.016C304.256 99.536 303.904 99.1627 303.456 98.896C303.008 98.6293 302.491 98.496 301.904 98.496C301.328 98.496 300.811 98.6293 300.352 98.896C299.894 99.1627 299.536 99.536 299.28 100.016C299.024 100.496 298.896 101.045 298.896 101.664V101.84C298.896 102.48 299.035 103.045 299.312 103.536C299.6 104.016 299.995 104.395 300.496 104.672C301.008 104.939 301.59 105.072 302.24 105.072C302.752 105.072 303.227 104.981 303.664 104.8C304.112 104.619 304.496 104.341 304.816 103.968L305.456 104.704C305.083 105.152 304.614 105.493 304.048 105.728C303.494 105.963 302.88 106.08 302.208 106.08Z" fill="black"/>
<rect width="82" height="40" transform="translate(328 80)" fill="#ED6B1E" fill-opacity="0.5"/>
<path d="M351.032 106L356.152 94.8H357.32L362.44 106H361.192L356.488 95.488H356.968L352.264 106H351.032ZM353.048 103.008L353.4 102.048H359.912L360.264 103.008H353.048ZM367.031 106.08C366.337 106.08 365.681 105.984 365.063 105.792C364.444 105.589 363.959 105.339 363.607 105.04L364.119 104.144C364.46 104.4 364.897 104.624 365.431 104.816C365.964 104.997 366.524 105.088 367.111 105.088C367.911 105.088 368.487 104.965 368.839 104.72C369.191 104.464 369.367 104.128 369.367 103.712C369.367 103.403 369.265 103.163 369.063 102.992C368.871 102.811 368.615 102.677 368.295 102.592C367.975 102.496 367.617 102.416 367.223 102.352C366.828 102.288 366.433 102.213 366.039 102.128C365.655 102.043 365.303 101.92 364.983 101.76C364.663 101.589 364.401 101.36 364.199 101.072C364.007 100.784 363.911 100.4 363.911 99.92C363.911 99.4613 364.039 99.0507 364.295 98.688C364.551 98.3253 364.924 98.0427 365.415 97.84C365.916 97.6267 366.524 97.52 367.239 97.52C367.783 97.52 368.327 97.5947 368.871 97.744C369.415 97.8827 369.863 98.0693 370.215 98.304L369.719 99.216C369.345 98.96 368.945 98.7787 368.519 98.672C368.092 98.5547 367.665 98.496 367.239 98.496C366.481 98.496 365.921 98.6293 365.559 98.896C365.207 99.152 365.031 99.4827 365.031 99.888C365.031 100.208 365.127 100.459 365.319 100.64C365.521 100.821 365.783 100.965 366.103 101.072C366.433 101.168 366.791 101.248 367.175 101.312C367.569 101.376 367.959 101.456 368.343 101.552C368.737 101.637 369.095 101.76 369.415 101.92C369.745 102.069 370.007 102.288 370.199 102.576C370.401 102.853 370.503 103.221 370.503 103.68C370.503 104.171 370.364 104.597 370.087 104.96C369.82 105.312 369.425 105.589 368.903 105.792C368.391 105.984 367.767 106.08 367.031 106.08ZM378.651 106V104.144L378.603 103.84V100.736C378.603 100.021 378.4 99.472 377.995 99.088C377.6 98.704 377.008 98.512 376.219 98.512C375.675 98.512 375.158 98.6027 374.667 98.784C374.176 98.9653 373.76 99.2053 373.419 99.504L372.907 98.656C373.334 98.2933 373.846 98.016 374.443 97.824C375.04 97.6213 375.67 97.52 376.331 97.52C377.419 97.52 378.256 97.792 378.843 98.336C379.44 98.8693 379.739 99.6853 379.739 100.784V106H378.651ZM375.755 106.08C375.126 106.08 374.576 105.979 374.107 105.776C373.648 105.563 373.296 105.275 373.051 104.912C372.806 104.539 372.683 104.112 372.683 103.632C372.683 103.195 372.784 102.8 372.987 102.448C373.2 102.085 373.542 101.797 374.011 101.584C374.491 101.36 375.131 101.248 375.931 101.248H378.827V102.096H375.963C375.152 102.096 374.587 102.24 374.267 102.528C373.958 102.816 373.803 103.173 373.803 103.6C373.803 104.08 373.99 104.464 374.363 104.752C374.736 105.04 375.259 105.184 375.931 105.184C376.571 105.184 377.12 105.04 377.579 104.752C378.048 104.453 378.39 104.027 378.603 103.472L378.859 104.256C378.646 104.811 378.272 105.253 377.739 105.584C377.216 105.915 376.555 106.08 375.755 106.08ZM383.625 106V94.128H384.761V106H383.625Z" fill="black"/>
<rect width="82" height="40" transform="translate(410 80)" fill="#ED6B1E" fill-opacity="0.5"/>
<path d="M409 106V95.824H405.064V94.8H414.12V95.824H410.184V106H409ZM419.281 109.184C418.513 109.184 417.777 109.072 417.073 108.848C416.369 108.624 415.798 108.304 415.361 107.888L415.937 107.024C416.331 107.376 416.817 107.653 417.393 107.856C417.979 108.069 418.598 108.176 419.249 108.176C420.315 108.176 421.099 107.925 421.601 107.424C422.102 106.933 422.353 106.165 422.353 105.12V103.024L422.513 101.584L422.401 100.144V97.6H423.489V104.976C423.489 106.427 423.131 107.488 422.417 108.16C421.713 108.843 420.667 109.184 419.281 109.184ZM419.073 105.68C418.273 105.68 417.553 105.509 416.913 105.168C416.273 104.816 415.766 104.331 415.393 103.712C415.03 103.093 414.849 102.384 414.849 101.584C414.849 100.784 415.03 100.08 415.393 99.472C415.766 98.8533 416.273 98.3733 416.913 98.032C417.553 97.6907 418.273 97.52 419.073 97.52C419.819 97.52 420.491 97.6747 421.089 97.984C421.686 98.2933 422.161 98.752 422.513 99.36C422.865 99.968 423.041 100.709 423.041 101.584C423.041 102.459 422.865 103.2 422.513 103.808C422.161 104.416 421.686 104.88 421.089 105.2C420.491 105.52 419.819 105.68 419.073 105.68ZM419.185 104.672C419.803 104.672 420.353 104.544 420.833 104.288C421.313 104.021 421.691 103.659 421.969 103.2C422.246 102.731 422.385 102.192 422.385 101.584C422.385 100.976 422.246 100.443 421.969 99.984C421.691 99.5253 421.313 99.168 420.833 98.912C420.353 98.6453 419.803 98.512 419.185 98.512C418.577 98.512 418.027 98.6453 417.537 98.912C417.057 99.168 416.678 99.5253 416.401 99.984C416.134 100.443 416.001 100.976 416.001 101.584C416.001 102.192 416.134 102.731 416.401 103.2C416.678 103.659 417.057 104.021 417.537 104.288C418.027 104.544 418.577 104.672 419.185 104.672ZM427.45 106V94.128H428.586V106H427.45ZM430.962 106.768V106H438.962V106.768H430.962ZM442.071 106V94.8H443.047L448.167 103.536H447.655L452.727 94.8H453.703V106H452.567V96.576H452.839L448.167 104.576H447.607L442.903 96.576H443.207V106H442.071ZM463.176 106V104.144L463.128 103.84V100.736C463.128 100.021 462.925 99.472 462.52 99.088C462.125 98.704 461.533 98.512 460.744 98.512C460.2 98.512 459.683 98.6027 459.192 98.784C458.701 98.9653 458.285 99.2053 457.944 99.504L457.432 98.656C457.859 98.2933 458.371 98.016 458.968 97.824C459.565 97.6213 460.195 97.52 460.856 97.52C461.944 97.52 462.781 97.792 463.368 98.336C463.965 98.8693 464.264 99.6853 464.264 100.784V106H463.176ZM460.28 106.08C459.651 106.08 459.101 105.979 458.632 105.776C458.173 105.563 457.821 105.275 457.576 104.912C457.331 104.539 457.208 104.112 457.208 103.632C457.208 103.195 457.309 102.8 457.512 102.448C457.725 102.085 458.067 101.797 458.536 101.584C459.016 101.36 459.656 101.248 460.456 101.248H463.352V102.096H460.488C459.677 102.096 459.112 102.24 458.792 102.528C458.483 102.816 458.328 103.173 458.328 103.6C458.328 104.08 458.515 104.464 458.888 104.752C459.261 105.04 459.784 105.184 460.456 105.184C461.096 105.184 461.645 105.04 462.104 104.752C462.573 104.453 462.915 104.027 463.128 103.472L463.384 104.256C463.171 104.811 462.797 105.253 462.264 105.584C461.741 105.915 461.08 106.08 460.28 106.08ZM470.406 106.08C469.712 106.08 469.056 105.984 468.438 105.792C467.819 105.589 467.334 105.339 466.982 105.04L467.494 104.144C467.835 104.4 468.272 104.624 468.806 104.816C469.339 104.997 469.899 105.088 470.486 105.088C471.286 105.088 471.862 104.965 472.214 104.72C472.566 104.464 472.742 104.128 472.742 103.712C472.742 103.403 472.64 103.163 472.438 102.992C472.246 102.811 471.99 102.677 471.67 102.592C471.35 102.496 470.992 102.416 470.598 102.352C470.203 102.288 469.808 102.213 469.414 102.128C469.03 102.043 468.678 101.92 468.358 101.76C468.038 101.589 467.776 101.36 467.574 101.072C467.382 100.784 467.286 100.4 467.286 99.92C467.286 99.4613 467.414 99.0507 467.67 98.688C467.926 98.3253 468.299 98.0427 468.79 97.84C469.291 97.6267 469.899 97.52 470.614 97.52C471.158 97.52 471.702 97.5947 472.246 97.744C472.79 97.8827 473.238 98.0693 473.59 98.304L473.094 99.216C472.72 98.96 472.32 98.7787 471.894 98.672C471.467 98.5547 471.04 98.496 470.614 98.496C469.856 98.496 469.296 98.6293 468.934 98.896C468.582 99.152 468.406 99.4827 468.406 99.888C468.406 100.208 468.502 100.459 468.694 100.64C468.896 100.821 469.158 100.965 469.478 101.072C469.808 101.168 470.166 101.248 470.55 101.312C470.944 101.376 471.334 101.456 471.718 101.552C472.112 101.637 472.47 101.76 472.79 101.92C473.12 102.069 473.382 102.288 473.574 102.576C473.776 102.853 473.878 103.221 473.878 103.68C473.878 104.171 473.739 104.597 473.462 104.96C473.195 105.312 472.8 105.589 472.278 105.792C471.766 105.984 471.142 106.08 470.406 106.08ZM480.234 106.08C479.519 106.08 478.895 105.947 478.362 105.68C477.829 105.413 477.413 105.013 477.114 104.48C476.826 103.947 476.682 103.28 476.682 102.48V97.6H477.818V102.352C477.818 103.248 478.037 103.925 478.474 104.384C478.922 104.832 479.546 105.056 480.346 105.056C480.933 105.056 481.439 104.939 481.866 104.704C482.303 104.459 482.634 104.107 482.858 103.648C483.093 103.189 483.21 102.64 483.21 102V97.6H484.346V106H483.258V103.696L483.434 104.112C483.167 104.731 482.751 105.216 482.186 105.568C481.631 105.909 480.981 106.08 480.234 106.08ZM489.208 103.824L489.24 102.368L494.472 97.6H495.864L492.168 101.136L491.528 101.68L489.208 103.824ZM488.312 106V94.128H489.448V106H488.312ZM494.824 106L491.32 101.632L492.056 100.752L496.216 106H494.824Z" fill="black"/>
<rect width="82" height="40" transform="translate(492 80)" fill="#ED6B1E" fill-opacity="0.5"/>
<path d="M504.324 106V94.8H508.884C510.079 94.8 511.124 95.04 512.02 95.52C512.927 95.9893 513.631 96.6453 514.132 97.488C514.633 98.3307 514.884 99.3013 514.884 100.4C514.884 101.499 514.633 102.469 514.132 103.312C513.631 104.155 512.927 104.816 512.02 105.296C511.124 105.765 510.079 106 508.884 106H504.324ZM505.508 104.976H508.82C509.812 104.976 510.671 104.784 511.396 104.4C512.132 104.005 512.703 103.467 513.108 102.784C513.513 102.091 513.716 101.296 513.716 100.4C513.716 99.4933 513.513 98.6987 513.108 98.016C512.703 97.3333 512.132 96.8 511.396 96.416C510.671 96.0213 509.812 95.824 508.82 95.824H505.508V104.976ZM521.671 106.08C520.796 106.08 520.028 105.899 519.367 105.536C518.705 105.163 518.188 104.656 517.815 104.016C517.441 103.365 517.255 102.624 517.255 101.792C517.255 100.96 517.431 100.224 517.783 99.584C518.145 98.944 518.636 98.4427 519.255 98.08C519.884 97.7067 520.588 97.52 521.367 97.52C522.156 97.52 522.855 97.7013 523.463 98.064C524.081 98.416 524.567 98.9173 524.919 99.568C525.271 100.208 525.447 100.949 525.447 101.792C525.447 101.845 525.441 101.904 525.431 101.968C525.431 102.021 525.431 102.08 525.431 102.144H518.119V101.296H524.823L524.375 101.632C524.375 101.024 524.241 100.485 523.975 100.016C523.719 99.536 523.367 99.1627 522.919 98.896C522.471 98.6293 521.953 98.496 521.367 98.496C520.791 98.496 520.273 98.6293 519.815 98.896C519.356 99.1627 518.999 99.536 518.743 100.016C518.487 100.496 518.359 101.045 518.359 101.664V101.84C518.359 102.48 518.497 103.045 518.775 103.536C519.063 104.016 519.457 104.395 519.959 104.672C520.471 104.939 521.052 105.072 521.703 105.072C522.215 105.072 522.689 104.981 523.127 104.8C523.575 104.619 523.959 104.341 524.279 103.968L524.919 104.704C524.545 105.152 524.076 105.493 523.511 105.728C522.956 105.963 522.343 106.08 521.671 106.08ZM531.215 106.08C530.426 106.08 529.818 105.867 529.391 105.44C528.964 105.013 528.751 104.411 528.751 103.632V95.744H529.887V103.568C529.887 104.059 530.01 104.437 530.255 104.704C530.511 104.971 530.874 105.104 531.343 105.104C531.844 105.104 532.26 104.96 532.591 104.672L532.991 105.488C532.767 105.691 532.495 105.84 532.175 105.936C531.866 106.032 531.546 106.08 531.215 106.08ZM527.247 98.544V97.6H532.447V98.544H527.247ZM541.123 106V104.144L541.075 103.84V100.736C541.075 100.021 540.872 99.472 540.467 99.088C540.072 98.704 539.48 98.512 538.691 98.512C538.147 98.512 537.63 98.6027 537.139 98.784C536.648 98.9653 536.232 99.2053 535.891 99.504L535.379 98.656C535.806 98.2933 536.318 98.016 536.915 97.824C537.512 97.6213 538.142 97.52 538.803 97.52C539.891 97.52 540.728 97.792 541.315 98.336C541.912 98.8693 542.211 99.6853 542.211 100.784V106H541.123ZM538.227 106.08C537.598 106.08 537.048 105.979 536.579 105.776C536.12 105.563 535.768 105.275 535.523 104.912C535.278 104.539 535.155 104.112 535.155 103.632C535.155 103.195 535.256 102.8 535.459 102.448C535.672 102.085 536.014 101.797 536.483 101.584C536.963 101.36 537.603 101.248 538.403 101.248H541.299V102.096H538.435C537.624 102.096 537.059 102.24 536.739 102.528C536.43 102.816 536.275 103.173 536.275 103.6C536.275 104.08 536.462 104.464 536.835 104.752C537.208 105.04 537.731 105.184 538.403 105.184C539.043 105.184 539.592 105.04 540.051 104.752C540.52 104.453 540.862 104.027 541.075 103.472L541.331 104.256C541.118 104.811 540.744 105.253 540.211 105.584C539.688 105.915 539.027 106.08 538.227 106.08ZM546.097 106V97.6H547.233V106H546.097ZM546.673 95.744C546.438 95.744 546.241 95.664 546.081 95.504C545.921 95.344 545.841 95.152 545.841 94.928C545.841 94.704 545.921 94.5173 546.081 94.368C546.241 94.208 546.438 94.128 546.673 94.128C546.907 94.128 547.105 94.2027 547.265 94.352C547.425 94.5013 547.505 94.688 547.505 94.912C547.505 95.1467 547.425 95.344 547.265 95.504C547.115 95.664 546.918 95.744 546.673 95.744ZM551.193 106V94.128H552.329V106H551.193ZM558.546 106.08C557.853 106.08 557.197 105.984 556.578 105.792C555.96 105.589 555.474 105.339 555.122 105.04L555.634 104.144C555.976 104.4 556.413 104.624 556.946 104.816C557.48 104.997 558.04 105.088 558.626 105.088C559.426 105.088 560.002 104.965 560.354 104.72C560.706 104.464 560.882 104.128 560.882 103.712C560.882 103.403 560.781 103.163 560.578 102.992C560.386 102.811 560.13 102.677 559.81 102.592C559.49 102.496 559.133 102.416 558.738 102.352C558.344 102.288 557.949 102.213 557.554 102.128C557.17 102.043 556.818 101.92 556.498 101.76C556.178 101.589 555.917 101.36 555.714 101.072C555.522 100.784 555.426 100.4 555.426 99.92C555.426 99.4613 555.554 99.0507 555.81 98.688C556.066 98.3253 556.44 98.0427 556.93 97.84C557.432 97.6267 558.04 97.52 558.754 97.52C559.298 97.52 559.842 97.5947 560.386 97.744C560.93 97.8827 561.378 98.0693 561.73 98.304L561.234 99.216C560.861 98.96 560.461 98.7787 560.034 98.672C559.608 98.5547 559.181 98.496 558.754 98.496C557.997 98.496 557.437 98.6293 557.074 98.896C556.722 99.152 556.546 99.4827 556.546 99.888C556.546 100.208 556.642 100.459 556.834 100.64C557.037 100.821 557.298 100.965 557.618 101.072C557.949 101.168 558.306 101.248 558.69 101.312C559.085 101.376 559.474 101.456 559.858 101.552C560.253 101.637 560.61 101.76 560.93 101.92C561.261 102.069 561.522 102.288 561.714 102.576C561.917 102.853 562.018 103.221 562.018 103.68C562.018 104.171 561.88 104.597 561.602 104.96C561.336 105.312 560.941 105.589 560.418 105.792C559.906 105.984 559.282 106.08 558.546 106.08Z" fill="black"/>
<rect width="82" height="40" transform="translate(0 120)" fill="#ED6B1E" fill-opacity="0.5"/>
<path d="M3.324 146V134.8H4.3L12.028 144.528H11.516V134.8H12.684V146H11.708L3.996 136.272H4.508V146H3.324ZM20.3236 146.08C19.513 146.08 18.7823 145.899 18.1316 145.536C17.4916 145.163 16.985 144.656 16.6116 144.016C16.2383 143.365 16.0516 142.624 16.0516 141.792C16.0516 140.949 16.2383 140.208 16.6116 139.568C16.985 138.928 17.4916 138.427 18.1316 138.064C18.7716 137.701 19.5023 137.52 20.3236 137.52C21.1556 137.52 21.8916 137.701 22.5316 138.064C23.1823 138.427 23.689 138.928 24.0516 139.568C24.425 140.208 24.6116 140.949 24.6116 141.792C24.6116 142.624 24.425 143.365 24.0516 144.016C23.689 144.656 23.1823 145.163 22.5316 145.536C21.881 145.899 21.145 146.08 20.3236 146.08ZM20.3236 145.072C20.9316 145.072 21.4703 144.939 21.9396 144.672C22.409 144.395 22.777 144.011 23.0436 143.52C23.321 143.019 23.4596 142.443 23.4596 141.792C23.4596 141.131 23.321 140.555 23.0436 140.064C22.777 139.573 22.409 139.195 21.9396 138.928C21.4703 138.651 20.937 138.512 20.3396 138.512C19.7423 138.512 19.209 138.651 18.7396 138.928C18.2703 139.195 17.897 139.573 17.6196 140.064C17.3423 140.555 17.2036 141.131 17.2036 141.792C17.2036 142.443 17.3423 143.019 17.6196 143.52C17.897 144.011 18.2703 144.395 18.7396 144.672C19.209 144.939 19.737 145.072 20.3236 145.072ZM27.6085 146.08C27.3738 146.08 27.1712 145.995 27.0005 145.824C26.8405 145.653 26.7605 145.445 26.7605 145.2C26.7605 144.944 26.8405 144.736 27.0005 144.576C27.1712 144.416 27.3738 144.336 27.6085 144.336C27.8432 144.336 28.0405 144.416 28.2005 144.576C28.3712 144.736 28.4565 144.944 28.4565 145.2C28.4565 145.445 28.3712 145.653 28.2005 145.824C28.0405 145.995 27.8432 146.08 27.6085 146.08ZM36.5106 146.096C35.668 146.096 34.884 145.957 34.1586 145.68C33.444 145.392 32.82 144.992 32.2866 144.48C31.764 143.957 31.3533 143.355 31.0546 142.672C30.7666 141.979 30.6226 141.221 30.6226 140.4C30.6226 139.579 30.7666 138.827 31.0546 138.144C31.3533 137.451 31.764 136.848 32.2866 136.336C32.82 135.813 33.444 135.413 34.1586 135.136C34.8733 134.848 35.6573 134.704 36.5106 134.704C37.3533 134.704 38.132 134.848 38.8466 135.136C39.5613 135.413 40.18 135.808 40.7026 136.32C41.236 136.832 41.6466 137.435 41.9346 138.128C42.2333 138.821 42.3826 139.579 42.3826 140.4C42.3826 141.221 42.2333 141.979 41.9346 142.672C41.6466 143.365 41.236 143.968 40.7026 144.48C40.18 144.992 39.5613 145.392 38.8466 145.68C38.132 145.957 37.3533 146.096 36.5106 146.096ZM36.5106 145.04C37.1826 145.04 37.8013 144.928 38.3666 144.704C38.9426 144.469 39.4386 144.144 39.8546 143.728C40.2813 143.301 40.612 142.811 40.8466 142.256C41.0813 141.691 41.1986 141.072 41.1986 140.4C41.1986 139.728 41.0813 139.115 40.8466 138.56C40.612 137.995 40.2813 137.504 39.8546 137.088C39.4386 136.661 38.9426 136.336 38.3666 136.112C37.8013 135.877 37.1826 135.76 36.5106 135.76C35.8386 135.76 35.2146 135.877 34.6386 136.112C34.0626 136.336 33.5613 136.661 33.1346 137.088C32.7186 137.504 32.388 137.995 32.1426 138.56C31.908 139.115 31.7906 139.728 31.7906 140.4C31.7906 141.061 31.908 141.675 32.1426 142.24C32.388 142.805 32.7186 143.301 33.1346 143.728C33.5613 144.144 34.0626 144.469 34.6386 144.704C35.2146 144.928 35.8386 145.04 36.5106 145.04ZM45.5965 146V137.6H46.6845V139.888L46.5725 139.488C46.8072 138.848 47.2018 138.363 47.7565 138.032C48.3112 137.691 48.9992 137.52 49.8205 137.52V138.624C49.7778 138.624 49.7352 138.624 49.6925 138.624C49.6498 138.613 49.6072 138.608 49.5645 138.608C48.6792 138.608 47.9858 138.88 47.4845 139.424C46.9832 139.957 46.7325 140.72 46.7325 141.712V146H45.5965ZM55.9593 146.08C55.1593 146.08 54.4393 145.899 53.7993 145.536C53.1699 145.173 52.6739 144.672 52.3113 144.032C51.9486 143.381 51.7673 142.635 51.7673 141.792C51.7673 140.939 51.9486 140.192 52.3113 139.552C52.6739 138.912 53.1699 138.416 53.7993 138.064C54.4393 137.701 55.1593 137.52 55.9593 137.52C56.6953 137.52 57.3513 137.685 57.9273 138.016C58.5139 138.347 58.9779 138.832 59.3193 139.472C59.6713 140.101 59.8472 140.875 59.8472 141.792C59.8472 142.699 59.6766 143.472 59.3353 144.112C58.9939 144.752 58.5299 145.243 57.9433 145.584C57.3673 145.915 56.7059 146.08 55.9593 146.08ZM56.0393 145.072C56.6366 145.072 57.1699 144.939 57.6393 144.672C58.1193 144.395 58.4926 144.011 58.7593 143.52C59.0366 143.019 59.1753 142.443 59.1753 141.792C59.1753 141.131 59.0366 140.555 58.7593 140.064C58.4926 139.573 58.1193 139.195 57.6393 138.928C57.1699 138.651 56.6366 138.512 56.0393 138.512C55.4526 138.512 54.9246 138.651 54.4553 138.928C53.9859 139.195 53.6126 139.573 53.3353 140.064C53.0579 140.555 52.9193 141.131 52.9193 141.792C52.9193 142.443 53.0579 143.019 53.3353 143.52C53.6126 144.011 53.9859 144.395 54.4553 144.672C54.9246 144.939 55.4526 145.072 56.0393 145.072ZM59.2073 146V143.472L59.3193 141.776L59.1593 140.08V134.128H60.2953V146H59.2073ZM67.827 146.08C66.9523 146.08 66.1843 145.899 65.523 145.536C64.8617 145.163 64.3443 144.656 63.971 144.016C63.5977 143.365 63.411 142.624 63.411 141.792C63.411 140.96 63.587 140.224 63.939 139.584C64.3017 138.944 64.7923 138.443 65.411 138.08C66.0403 137.707 66.7443 137.52 67.523 137.52C68.3123 137.52 69.011 137.701 69.619 138.064C70.2377 138.416 70.723 138.917 71.075 139.568C71.427 140.208 71.603 140.949 71.603 141.792C71.603 141.845 71.5977 141.904 71.587 141.968C71.587 142.021 71.587 142.08 71.587 142.144H64.275V141.296H70.979L70.531 141.632C70.531 141.024 70.3977 140.485 70.131 140.016C69.875 139.536 69.523 139.163 69.075 138.896C68.627 138.629 68.1097 138.496 67.523 138.496C66.947 138.496 66.4297 138.629 65.971 138.896C65.5123 139.163 65.155 139.536 64.899 140.016C64.643 140.496 64.515 141.045 64.515 141.664V141.84C64.515 142.48 64.6537 143.045 64.931 143.536C65.219 144.016 65.6137 144.395 66.115 144.672C66.627 144.939 67.2083 145.072 67.859 145.072C68.371 145.072 68.8457 144.981 69.283 144.8C69.731 144.619 70.115 144.341 70.435 143.968L71.075 144.704C70.7017 145.152 70.2323 145.493 69.667 145.728C69.1123 145.963 68.499 146.08 67.827 146.08ZM74.7152 146V137.6H75.8032V139.888L75.6912 139.488C75.9259 138.848 76.3206 138.363 76.8752 138.032C77.4299 137.691 78.1179 137.52 78.9392 137.52V138.624C78.8966 138.624 78.8539 138.624 78.8112 138.624C78.7686 138.613 78.7259 138.608 78.6832 138.608C77.7979 138.608 77.1046 138.88 76.6032 139.424C76.1019 139.957 75.8512 140.72 75.8512 141.712V146H74.7152Z" fill="black"/>
<rect width="82" height="40" transform="translate(82 120)" fill="#ED6B1E" fill-opacity="0.5"/>
<path d="M103.912 146.096C103.08 146.096 102.28 145.963 101.512 145.696C100.755 145.419 100.168 145.067 99.752 144.64L100.216 143.728C100.611 144.112 101.139 144.437 101.8 144.704C102.472 144.96 103.176 145.088 103.912 145.088C104.616 145.088 105.187 145.003 105.624 144.832C106.072 144.651 106.397 144.411 106.6 144.112C106.813 143.813 106.92 143.483 106.92 143.12C106.92 142.683 106.792 142.331 106.536 142.064C106.291 141.797 105.965 141.589 105.56 141.44C105.155 141.28 104.707 141.141 104.216 141.024C103.725 140.907 103.235 140.784 102.744 140.656C102.253 140.517 101.8 140.336 101.384 140.112C100.979 139.888 100.648 139.595 100.392 139.232C100.147 138.859 100.024 138.373 100.024 137.776C100.024 137.221 100.168 136.715 100.456 136.256C100.755 135.787 101.208 135.413 101.816 135.136C102.424 134.848 103.203 134.704 104.152 134.704C104.781 134.704 105.405 134.795 106.024 134.976C106.643 135.147 107.176 135.387 107.624 135.696L107.224 136.64C106.744 136.32 106.232 136.085 105.688 135.936C105.155 135.787 104.637 135.712 104.136 135.712C103.464 135.712 102.909 135.803 102.472 135.984C102.035 136.165 101.709 136.411 101.496 136.72C101.293 137.019 101.192 137.36 101.192 137.744C101.192 138.181 101.315 138.533 101.56 138.8C101.816 139.067 102.147 139.275 102.552 139.424C102.968 139.573 103.421 139.707 103.912 139.824C104.403 139.941 104.888 140.069 105.368 140.208C105.859 140.347 106.307 140.528 106.712 140.752C107.128 140.965 107.459 141.253 107.704 141.616C107.96 141.979 108.088 142.453 108.088 143.04C108.088 143.584 107.939 144.091 107.64 144.56C107.341 145.019 106.883 145.392 106.264 145.68C105.656 145.957 104.872 146.096 103.912 146.096ZM114.796 146.08C113.921 146.08 113.153 145.899 112.492 145.536C111.83 145.163 111.313 144.656 110.94 144.016C110.566 143.365 110.38 142.624 110.38 141.792C110.38 140.96 110.556 140.224 110.908 139.584C111.27 138.944 111.761 138.443 112.38 138.08C113.009 137.707 113.713 137.52 114.492 137.52C115.281 137.52 115.98 137.701 116.588 138.064C117.206 138.416 117.692 138.917 118.044 139.568C118.396 140.208 118.572 140.949 118.572 141.792C118.572 141.845 118.566 141.904 118.556 141.968C118.556 142.021 118.556 142.08 118.556 142.144H111.244V141.296H117.948L117.5 141.632C117.5 141.024 117.366 140.485 117.1 140.016C116.844 139.536 116.492 139.163 116.044 138.896C115.596 138.629 115.078 138.496 114.492 138.496C113.916 138.496 113.398 138.629 112.94 138.896C112.481 139.163 112.124 139.536 111.868 140.016C111.612 140.496 111.484 141.045 111.484 141.664V141.84C111.484 142.48 111.622 143.045 111.9 143.536C112.188 144.016 112.582 144.395 113.084 144.672C113.596 144.939 114.177 145.072 114.828 145.072C115.34 145.072 115.814 144.981 116.252 144.8C116.7 144.619 117.084 144.341 117.404 143.968L118.044 144.704C117.67 145.152 117.201 145.493 116.636 145.728C116.081 145.963 115.468 146.08 114.796 146.08ZM121.684 146V137.6H122.772V139.888L122.66 139.488C122.895 138.848 123.289 138.363 123.844 138.032C124.399 137.691 125.087 137.52 125.908 137.52V138.624C125.865 138.624 125.823 138.624 125.78 138.624C125.737 138.613 125.695 138.608 125.652 138.608C124.767 138.608 124.073 138.88 123.572 139.424C123.071 139.957 122.82 140.72 122.82 141.712V146H121.684ZM128.781 146V137.6H129.917V146H128.781ZM129.357 135.744C129.122 135.744 128.925 135.664 128.765 135.504C128.605 135.344 128.525 135.152 128.525 134.928C128.525 134.704 128.605 134.517 128.765 134.368C128.925 134.208 129.122 134.128 129.357 134.128C129.592 134.128 129.789 134.203 129.949 134.352C130.109 134.501 130.189 134.688 130.189 134.912C130.189 135.147 130.109 135.344 129.949 135.504C129.8 135.664 129.602 135.744 129.357 135.744ZM139.142 146V144.144L139.094 143.84V140.736C139.094 140.021 138.891 139.472 138.486 139.088C138.091 138.704 137.499 138.512 136.71 138.512C136.166 138.512 135.648 138.603 135.158 138.784C134.667 138.965 134.251 139.205 133.91 139.504L133.398 138.656C133.824 138.293 134.336 138.016 134.934 137.824C135.531 137.621 136.16 137.52 136.822 137.52C137.91 137.52 138.747 137.792 139.334 138.336C139.931 138.869 140.23 139.685 140.23 140.784V146H139.142ZM136.246 146.08C135.616 146.08 135.067 145.979 134.598 145.776C134.139 145.563 133.787 145.275 133.542 144.912C133.296 144.539 133.174 144.112 133.174 143.632C133.174 143.195 133.275 142.8 133.478 142.448C133.691 142.085 134.032 141.797 134.502 141.584C134.982 141.36 135.622 141.248 136.422 141.248H139.318V142.096H136.454C135.643 142.096 135.078 142.24 134.758 142.528C134.448 142.816 134.294 143.173 134.294 143.6C134.294 144.08 134.48 144.464 134.854 144.752C135.227 145.04 135.75 145.184 136.422 145.184C137.062 145.184 137.611 145.04 138.07 144.752C138.539 144.453 138.88 144.027 139.094 143.472L139.35 144.256C139.136 144.811 138.763 145.253 138.23 145.584C137.707 145.915 137.046 146.08 136.246 146.08ZM144.115 146V134.128H145.251V146H144.115Z" fill="black"/>
<rect width="82" height="40" transform="translate(164 120)" fill="#ED6B1E" fill-opacity="0.5"/>
<path d="M184.824 146V134.8H185.8L190.92 143.536H190.408L195.48 134.8H196.456V146H195.32V136.576H195.592L190.92 144.576H190.36L185.656 136.576H185.96V146H184.824ZM204.233 146.08C203.359 146.08 202.591 145.899 201.929 145.536C201.268 145.163 200.751 144.656 200.377 144.016C200.004 143.365 199.817 142.624 199.817 141.792C199.817 140.96 199.993 140.224 200.345 139.584C200.708 138.944 201.199 138.443 201.817 138.08C202.447 137.707 203.151 137.52 203.929 137.52C204.719 137.52 205.417 137.701 206.025 138.064C206.644 138.416 207.129 138.917 207.481 139.568C207.833 140.208 208.009 140.949 208.009 141.792C208.009 141.845 208.004 141.904 207.993 141.968C207.993 142.021 207.993 142.08 207.993 142.144H200.681V141.296H207.385L206.937 141.632C206.937 141.024 206.804 140.485 206.537 140.016C206.281 139.536 205.929 139.163 205.481 138.896C205.033 138.629 204.516 138.496 203.929 138.496C203.353 138.496 202.836 138.629 202.377 138.896C201.919 139.163 201.561 139.536 201.305 140.016C201.049 140.496 200.921 141.045 200.921 141.664V141.84C200.921 142.48 201.06 143.045 201.337 143.536C201.625 144.016 202.02 144.395 202.521 144.672C203.033 144.939 203.615 145.072 204.265 145.072C204.777 145.072 205.252 144.981 205.689 144.8C206.137 144.619 206.521 144.341 206.841 143.968L207.481 144.704C207.108 145.152 206.639 145.493 206.073 145.728C205.519 145.963 204.905 146.08 204.233 146.08ZM211.122 146V137.6H212.21V139.888L212.098 139.488C212.332 138.848 212.727 138.363 213.282 138.032C213.836 137.691 214.524 137.52 215.346 137.52V138.624C215.303 138.624 215.26 138.624 215.218 138.624C215.175 138.613 215.132 138.608 215.09 138.608C214.204 138.608 213.511 138.88 213.01 139.424C212.508 139.957 212.258 140.72 212.258 141.712V146H211.122ZM219.114 143.824L219.146 142.368L224.378 137.6H225.77L222.074 141.136L221.434 141.68L219.114 143.824ZM218.218 146V134.128H219.354V146H218.218ZM224.73 146L221.226 141.632L221.962 140.752L226.122 146H224.73Z" fill="black"/>
<rect width="82" height="40" transform="translate(246 120)" fill="#ED6B1E" fill-opacity="0.5"/>
<path d="M270.5 146V135.824H266.564V134.8H275.62V135.824H271.684V146H270.5ZM277.589 149.184C277.194 149.184 276.815 149.12 276.453 148.992C276.101 148.864 275.797 148.672 275.541 148.416L276.069 147.568C276.282 147.771 276.511 147.925 276.757 148.032C277.013 148.149 277.295 148.208 277.605 148.208C277.978 148.208 278.298 148.101 278.565 147.888C278.842 147.685 279.103 147.323 279.349 146.8L279.893 145.568L280.021 145.392L283.477 137.6H284.597L280.389 147.008C280.154 147.552 279.893 147.984 279.605 148.304C279.327 148.624 279.023 148.848 278.693 148.976C278.362 149.115 277.994 149.184 277.589 149.184ZM279.829 146.24L275.957 137.6H277.141L280.565 145.312L279.829 146.24ZM291.333 146.08C290.607 146.08 289.951 145.915 289.365 145.584C288.778 145.243 288.309 144.757 287.957 144.128C287.615 143.488 287.445 142.709 287.445 141.792C287.445 140.875 287.615 140.101 287.957 139.472C288.298 138.832 288.762 138.347 289.349 138.016C289.935 137.685 290.597 137.52 291.333 137.52C292.133 137.52 292.847 137.701 293.477 138.064C294.117 138.416 294.618 138.917 294.981 139.568C295.343 140.208 295.525 140.949 295.525 141.792C295.525 142.645 295.343 143.392 294.981 144.032C294.618 144.672 294.117 145.173 293.477 145.536C292.847 145.899 292.133 146.08 291.333 146.08ZM286.997 149.104V137.6H288.085V140.128L287.973 141.808L288.133 143.504V149.104H286.997ZM291.253 145.072C291.85 145.072 292.383 144.939 292.853 144.672C293.322 144.395 293.695 144.011 293.973 143.52C294.25 143.019 294.389 142.443 294.389 141.792C294.389 141.141 294.25 140.571 293.973 140.08C293.695 139.589 293.322 139.205 292.853 138.928C292.383 138.651 291.85 138.512 291.253 138.512C290.655 138.512 290.117 138.651 289.637 138.928C289.167 139.205 288.794 139.589 288.517 140.08C288.25 140.571 288.117 141.141 288.117 141.792C288.117 142.443 288.25 143.019 288.517 143.52C288.794 144.011 289.167 144.395 289.637 144.672C290.117 144.939 290.655 145.072 291.253 145.072ZM302.208 146.08C301.334 146.08 300.566 145.899 299.904 145.536C299.243 145.163 298.726 144.656 298.352 144.016C297.979 143.365 297.792 142.624 297.792 141.792C297.792 140.96 297.968 140.224 298.32 139.584C298.683 138.944 299.174 138.443 299.792 138.08C300.422 137.707 301.126 137.52 301.904 137.52C302.694 137.52 303.392 137.701 304 138.064C304.619 138.416 305.104 138.917 305.456 139.568C305.808 140.208 305.984 140.949 305.984 141.792C305.984 141.845 305.979 141.904 305.968 141.968C305.968 142.021 305.968 142.08 305.968 142.144H298.656V141.296H305.36L304.912 141.632C304.912 141.024 304.779 140.485 304.512 140.016C304.256 139.536 303.904 139.163 303.456 138.896C303.008 138.629 302.491 138.496 301.904 138.496C301.328 138.496 300.811 138.629 300.352 138.896C299.894 139.163 299.536 139.536 299.28 140.016C299.024 140.496 298.896 141.045 298.896 141.664V141.84C298.896 142.48 299.035 143.045 299.312 143.536C299.6 144.016 299.995 144.395 300.496 144.672C301.008 144.939 301.59 145.072 302.24 145.072C302.752 145.072 303.227 144.981 303.664 144.8C304.112 144.619 304.496 144.341 304.816 143.968L305.456 144.704C305.083 145.152 304.614 145.493 304.048 145.728C303.494 145.963 302.88 146.08 302.208 146.08Z" fill="black"/>
<rect width="82" height="40" transform="translate(328 120)" fill="#ED6B1E" fill-opacity="0.5"/>
<path d="M351.032 146L356.152 134.8H357.32L362.44 146H361.192L356.488 135.488H356.968L352.264 146H351.032ZM353.048 143.008L353.4 142.048H359.912L360.264 143.008H353.048ZM367.031 146.08C366.337 146.08 365.681 145.984 365.063 145.792C364.444 145.589 363.959 145.339 363.607 145.04L364.119 144.144C364.46 144.4 364.897 144.624 365.431 144.816C365.964 144.997 366.524 145.088 367.111 145.088C367.911 145.088 368.487 144.965 368.839 144.72C369.191 144.464 369.367 144.128 369.367 143.712C369.367 143.403 369.265 143.163 369.063 142.992C368.871 142.811 368.615 142.677 368.295 142.592C367.975 142.496 367.617 142.416 367.223 142.352C366.828 142.288 366.433 142.213 366.039 142.128C365.655 142.043 365.303 141.92 364.983 141.76C364.663 141.589 364.401 141.36 364.199 141.072C364.007 140.784 363.911 140.4 363.911 139.92C363.911 139.461 364.039 139.051 364.295 138.688C364.551 138.325 364.924 138.043 365.415 137.84C365.916 137.627 366.524 137.52 367.239 137.52C367.783 137.52 368.327 137.595 368.871 137.744C369.415 137.883 369.863 138.069 370.215 138.304L369.719 139.216C369.345 138.96 368.945 138.779 368.519 138.672C368.092 138.555 367.665 138.496 367.239 138.496C366.481 138.496 365.921 138.629 365.559 138.896C365.207 139.152 365.031 139.483 365.031 139.888C365.031 140.208 365.127 140.459 365.319 140.64C365.521 140.821 365.783 140.965 366.103 141.072C366.433 141.168 366.791 141.248 367.175 141.312C367.569 141.376 367.959 141.456 368.343 141.552C368.737 141.637 369.095 141.76 369.415 141.92C369.745 142.069 370.007 142.288 370.199 142.576C370.401 142.853 370.503 143.221 370.503 143.68C370.503 144.171 370.364 144.597 370.087 144.96C369.82 145.312 369.425 145.589 368.903 145.792C368.391 145.984 367.767 146.08 367.031 146.08ZM378.651 146V144.144L378.603 143.84V140.736C378.603 140.021 378.4 139.472 377.995 139.088C377.6 138.704 377.008 138.512 376.219 138.512C375.675 138.512 375.158 138.603 374.667 138.784C374.176 138.965 373.76 139.205 373.419 139.504L372.907 138.656C373.334 138.293 373.846 138.016 374.443 137.824C375.04 137.621 375.67 137.52 376.331 137.52C377.419 137.52 378.256 137.792 378.843 138.336C379.44 138.869 379.739 139.685 379.739 140.784V146H378.651ZM375.755 146.08C375.126 146.08 374.576 145.979 374.107 145.776C373.648 145.563 373.296 145.275 373.051 144.912C372.806 144.539 372.683 144.112 372.683 143.632C372.683 143.195 372.784 142.8 372.987 142.448C373.2 142.085 373.542 141.797 374.011 141.584C374.491 141.36 375.131 141.248 375.931 141.248H378.827V142.096H375.963C375.152 142.096 374.587 142.24 374.267 142.528C373.958 142.816 373.803 143.173 373.803 143.6C373.803 144.08 373.99 144.464 374.363 144.752C374.736 145.04 375.259 145.184 375.931 145.184C376.571 145.184 377.12 145.04 377.579 144.752C378.048 144.453 378.39 144.027 378.603 143.472L378.859 144.256C378.646 144.811 378.272 145.253 377.739 145.584C377.216 145.915 376.555 146.08 375.755 146.08ZM383.625 146V134.128H384.761V146H383.625Z" fill="black"/>
<rect width="82" height="40" transform="translate(410 120)" fill="#ED6B1E" fill-opacity="0.5"/>
<path d="M409 146V135.824H405.064V134.8H414.12V135.824H410.184V146H409ZM419.281 149.184C418.513 149.184 417.777 149.072 417.073 148.848C416.369 148.624 415.798 148.304 415.361 147.888L415.937 147.024C416.331 147.376 416.817 147.653 417.393 147.856C417.979 148.069 418.598 148.176 419.249 148.176C420.315 148.176 421.099 147.925 421.601 147.424C422.102 146.933 422.353 146.165 422.353 145.12V143.024L422.513 141.584L422.401 140.144V137.6H423.489V144.976C423.489 146.427 423.131 147.488 422.417 148.16C421.713 148.843 420.667 149.184 419.281 149.184ZM419.073 145.68C418.273 145.68 417.553 145.509 416.913 145.168C416.273 144.816 415.766 144.331 415.393 143.712C415.03 143.093 414.849 142.384 414.849 141.584C414.849 140.784 415.03 140.08 415.393 139.472C415.766 138.853 416.273 138.373 416.913 138.032C417.553 137.691 418.273 137.52 419.073 137.52C419.819 137.52 420.491 137.675 421.089 137.984C421.686 138.293 422.161 138.752 422.513 139.36C422.865 139.968 423.041 140.709 423.041 141.584C423.041 142.459 422.865 143.2 422.513 143.808C422.161 144.416 421.686 144.88 421.089 145.2C420.491 145.52 419.819 145.68 419.073 145.68ZM419.185 144.672C419.803 144.672 420.353 144.544 420.833 144.288C421.313 144.021 421.691 143.659 421.969 143.2C422.246 142.731 422.385 142.192 422.385 141.584C422.385 140.976 422.246 140.443 421.969 139.984C421.691 139.525 421.313 139.168 420.833 138.912C420.353 138.645 419.803 138.512 419.185 138.512C418.577 138.512 418.027 138.645 417.537 138.912C417.057 139.168 416.678 139.525 416.401 139.984C416.134 140.443 416.001 140.976 416.001 141.584C416.001 142.192 416.134 142.731 416.401 143.2C416.678 143.659 417.057 144.021 417.537 144.288C418.027 144.544 418.577 144.672 419.185 144.672ZM427.45 146V134.128H428.586V146H427.45ZM430.962 146.768V146H438.962V146.768H430.962ZM442.071 146V134.8H443.047L448.167 143.536H447.655L452.727 134.8H453.703V146H452.567V136.576H452.839L448.167 144.576H447.607L442.903 136.576H443.207V146H442.071ZM463.176 146V144.144L463.128 143.84V140.736C463.128 140.021 462.925 139.472 462.52 139.088C462.125 138.704 461.533 138.512 460.744 138.512C460.2 138.512 459.683 138.603 459.192 138.784C458.701 138.965 458.285 139.205 457.944 139.504L457.432 138.656C457.859 138.293 458.371 138.016 458.968 137.824C459.565 137.621 460.195 137.52 460.856 137.52C461.944 137.52 462.781 137.792 463.368 138.336C463.965 138.869 464.264 139.685 464.264 140.784V146H463.176ZM460.28 146.08C459.651 146.08 459.101 145.979 458.632 145.776C458.173 145.563 457.821 145.275 457.576 144.912C457.331 144.539 457.208 144.112 457.208 143.632C457.208 143.195 457.309 142.8 457.512 142.448C457.725 142.085 458.067 141.797 458.536 141.584C459.016 141.36 459.656 141.248 460.456 141.248H463.352V142.096H460.488C459.677 142.096 459.112 142.24 458.792 142.528C458.483 142.816 458.328 143.173 458.328 143.6C458.328 144.08 458.515 144.464 458.888 144.752C459.261 145.04 459.784 145.184 460.456 145.184C461.096 145.184 461.645 145.04 462.104 144.752C462.573 144.453 462.915 144.027 463.128 143.472L463.384 144.256C463.171 144.811 462.797 145.253 462.264 145.584C461.741 145.915 461.08 146.08 460.28 146.08ZM470.406 146.08C469.712 146.08 469.056 145.984 468.438 145.792C467.819 145.589 467.334 145.339 466.982 145.04L467.494 144.144C467.835 144.4 468.272 144.624 468.806 144.816C469.339 144.997 469.899 145.088 470.486 145.088C471.286 145.088 471.862 144.965 472.214 144.72C472.566 144.464 472.742 144.128 472.742 143.712C472.742 143.403 472.64 143.163 472.438 142.992C472.246 142.811 471.99 142.677 471.67 142.592C471.35 142.496 470.992 142.416 470.598 142.352C470.203 142.288 469.808 142.213 469.414 142.128C469.03 142.043 468.678 141.92 468.358 141.76C468.038 141.589 467.776 141.36 467.574 141.072C467.382 140.784 467.286 140.4 467.286 139.92C467.286 139.461 467.414 139.051 467.67 138.688C467.926 138.325 468.299 138.043 468.79 137.84C469.291 137.627 469.899 137.52 470.614 137.52C471.158 137.52 471.702 137.595 472.246 137.744C472.79 137.883 473.238 138.069 473.59 138.304L473.094 139.216C472.72 138.96 472.32 138.779 471.894 138.672C471.467 138.555 471.04 138.496 470.614 138.496C469.856 138.496 469.296 138.629 468.934 138.896C468.582 139.152 468.406 139.483 468.406 139.888C468.406 140.208 468.502 140.459 468.694 140.64C468.896 140.821 469.158 140.965 469.478 141.072C469.808 141.168 470.166 141.248 470.55 141.312C470.944 141.376 471.334 141.456 471.718 141.552C472.112 141.637 472.47 141.76 472.79 141.92C473.12 142.069 473.382 142.288 473.574 142.576C473.776 142.853 473.878 143.221 473.878 143.68C473.878 144.171 473.739 144.597 473.462 144.96C473.195 145.312 472.8 145.589 472.278 145.792C471.766 145.984 471.142 146.08 470.406 146.08ZM480.234 146.08C479.519 146.08 478.895 145.947 478.362 145.68C477.829 145.413 477.413 145.013 477.114 144.48C476.826 143.947 476.682 143.28 476.682 142.48V137.6H477.818V142.352C477.818 143.248 478.037 143.925 478.474 144.384C478.922 144.832 479.546 145.056 480.346 145.056C480.933 145.056 481.439 144.939 481.866 144.704C482.303 144.459 482.634 144.107 482.858 143.648C483.093 143.189 483.21 142.64 483.21 142V137.6H484.346V146H483.258V143.696L483.434 144.112C483.167 144.731 482.751 145.216 482.186 145.568C481.631 145.909 480.981 146.08 480.234 146.08ZM489.208 143.824L489.24 142.368L494.472 137.6H495.864L492.168 141.136L491.528 141.68L489.208 143.824ZM488.312 146V134.128H489.448V146H488.312ZM494.824 146L491.32 141.632L492.056 140.752L496.216 146H494.824Z" fill="black"/>
<rect width="82" height="40" transform="translate(492 120)" fill="#ED6B1E" fill-opacity="0.5"/>
<path d="M504.324 146V134.8H508.884C510.079 134.8 511.124 135.04 512.02 135.52C512.927 135.989 513.631 136.645 514.132 137.488C514.633 138.331 514.884 139.301 514.884 140.4C514.884 141.499 514.633 142.469 514.132 143.312C513.631 144.155 512.927 144.816 512.02 145.296C511.124 145.765 510.079 146 508.884 146H504.324ZM505.508 144.976H508.82C509.812 144.976 510.671 144.784 511.396 144.4C512.132 144.005 512.703 143.467 513.108 142.784C513.513 142.091 513.716 141.296 513.716 140.4C513.716 139.493 513.513 138.699 513.108 138.016C512.703 137.333 512.132 136.8 511.396 136.416C510.671 136.021 509.812 135.824 508.82 135.824H505.508V144.976ZM521.671 146.08C520.796 146.08 520.028 145.899 519.367 145.536C518.705 145.163 518.188 144.656 517.815 144.016C517.441 143.365 517.255 142.624 517.255 141.792C517.255 140.96 517.431 140.224 517.783 139.584C518.145 138.944 518.636 138.443 519.255 138.08C519.884 137.707 520.588 137.52 521.367 137.52C522.156 137.52 522.855 137.701 523.463 138.064C524.081 138.416 524.567 138.917 524.919 139.568C525.271 140.208 525.447 140.949 525.447 141.792C525.447 141.845 525.441 141.904 525.431 141.968C525.431 142.021 525.431 142.08 525.431 142.144H518.119V141.296H524.823L524.375 141.632C524.375 141.024 524.241 140.485 523.975 140.016C523.719 139.536 523.367 139.163 522.919 138.896C522.471 138.629 521.953 138.496 521.367 138.496C520.791 138.496 520.273 138.629 519.815 138.896C519.356 139.163 518.999 139.536 518.743 140.016C518.487 140.496 518.359 141.045 518.359 141.664V141.84C518.359 142.48 518.497 143.045 518.775 143.536C519.063 144.016 519.457 144.395 519.959 144.672C520.471 144.939 521.052 145.072 521.703 145.072C522.215 145.072 522.689 144.981 523.127 144.8C523.575 144.619 523.959 144.341 524.279 143.968L524.919 144.704C524.545 145.152 524.076 145.493 523.511 145.728C522.956 145.963 522.343 146.08 521.671 146.08ZM531.215 146.08C530.426 146.08 529.818 145.867 529.391 145.44C528.964 145.013 528.751 144.411 528.751 143.632V135.744H529.887V143.568C529.887 144.059 530.01 144.437 530.255 144.704C530.511 144.971 530.874 145.104 531.343 145.104C531.844 145.104 532.26 144.96 532.591 144.672L532.991 145.488C532.767 145.691 532.495 145.84 532.175 145.936C531.866 146.032 531.546 146.08 531.215 146.08ZM527.247 138.544V137.6H532.447V138.544H527.247ZM541.123 146V144.144L541.075 143.84V140.736C541.075 140.021 540.872 139.472 540.467 139.088C540.072 138.704 539.48 138.512 538.691 138.512C538.147 138.512 537.63 138.603 537.139 138.784C536.648 138.965 536.232 139.205 535.891 139.504L535.379 138.656C535.806 138.293 536.318 138.016 536.915 137.824C537.512 137.621 538.142 137.52 538.803 137.52C539.891 137.52 540.728 137.792 541.315 138.336C541.912 138.869 542.211 139.685 542.211 140.784V146H541.123ZM538.227 146.08C537.598 146.08 537.048 145.979 536.579 145.776C536.12 145.563 535.768 145.275 535.523 144.912C535.278 144.539 535.155 144.112 535.155 143.632C535.155 143.195 535.256 142.8 535.459 142.448C535.672 142.085 536.014 141.797 536.483 141.584C536.963 141.36 537.603 141.248 538.403 141.248H541.299V142.096H538.435C537.624 142.096 537.059 142.24 536.739 142.528C536.43 142.816 536.275 143.173 536.275 143.6C536.275 144.08 536.462 144.464 536.835 144.752C537.208 145.04 537.731 145.184 538.403 145.184C539.043 145.184 539.592 145.04 540.051 144.752C540.52 144.453 540.862 144.027 541.075 143.472L541.331 144.256C541.118 144.811 540.744 145.253 540.211 145.584C539.688 145.915 539.027 146.08 538.227 146.08ZM546.097 146V137.6H547.233V146H546.097ZM546.673 135.744C546.438 135.744 546.241 135.664 546.081 135.504C545.921 135.344 545.841 135.152 545.841 134.928C545.841 134.704 545.921 134.517 546.081 134.368C546.241 134.208 546.438 134.128 546.673 134.128C546.907 134.128 547.105 134.203 547.265 134.352C547.425 134.501 547.505 134.688 547.505 134.912C547.505 135.147 547.425 135.344 547.265 135.504C547.115 135.664 546.918 135.744 546.673 135.744ZM551.193 146V134.128H552.329V146H551.193ZM558.546 146.08C557.853 146.08 557.197 145.984 556.578 145.792C555.96 145.589 555.474 145.339 555.122 145.04L555.634 144.144C555.976 144.4 556.413 144.624 556.946 144.816C557.48 144.997 558.04 145.088 558.626 145.088C559.426 145.088 560.002 144.965 560.354 144.72C560.706 144.464 560.882 144.128 560.882 143.712C560.882 143.403 560.781 143.163 560.578 142.992C560.386 142.811 560.13 142.677 559.81 142.592C559.49 142.496 559.133 142.416 558.738 142.352C558.344 142.288 557.949 142.213 557.554 142.128C557.17 142.043 556.818 141.92 556.498 141.76C556.178 141.589 555.917 141.36 555.714 141.072C555.522 140.784 555.426 140.4 555.426 139.92C555.426 139.461 555.554 139.051 555.81 138.688C556.066 138.325 556.44 138.043 556.93 137.84C557.432 137.627 558.04 137.52 558.754 137.52C559.298 137.52 559.842 137.595 560.386 137.744C560.93 137.883 561.378 138.069 561.73 138.304L561.234 139.216C560.861 138.96 560.461 138.779 560.034 138.672C559.608 138.555 559.181 138.496 558.754 138.496C557.997 138.496 557.437 138.629 557.074 138.896C556.722 139.152 556.546 139.483 556.546 139.888C556.546 140.208 556.642 140.459 556.834 140.64C557.037 140.821 557.298 140.965 557.618 141.072C557.949 141.168 558.306 141.248 558.69 141.312C559.085 141.376 559.474 141.456 559.858 141.552C560.253 141.637 560.61 141.76 560.93 141.92C561.261 142.069 561.522 142.288 561.714 142.576C561.917 142.853 562.018 143.221 562.018 143.68C562.018 144.171 561.88 144.597 561.602 144.96C561.336 145.312 560.941 145.589 560.418 145.792C559.906 145.984 559.282 146.08 558.546 146.08Z" fill="black"/>
<rect x="0.5" y="120.5" width="573" height="39" stroke="black"/>
</svg>
